<?xml version="1.0" encoding="utf-8"?><svg xmlns="http://www.w3.org/2000/svg" xmlns:xlink="http://www.w3.org/1999/xlink" preserveAspectRatio="xMidYMid" viewBox="0 0 1554 965" style="z-index:1;shape-rendering:crispedges;margin-right:-2px;display:block;background-repeat-y:initial;background-repeat-x:initial;background-color:rgb(55, 65, 81);animation-play-state:paused"><g transform="translate(777,482.5) scale(1,1) translate(-777,-482.5)" style="transform:matrix(1, 0, 0, 1, 0, 0);animation-play-state:paused"><path id="path0" d="M 1123.1367630031734 454.4239609239408 c 0 24.049300865139635 -5.884403403172463 6.907777908072023 -12.792181311244486 6.907777908072023 S 1097.5524003806843 478.4732617890804 1097.5524003806843 454.4239609239408 s 5.884403403172463 -6.907777908072023 12.792181311244486 -6.907777908072023 S 1123.1367630031734 430.37466005880117 1123.1367630031734 454.4239609239408 z" fill="none" stroke="none" style="animation-play-state:paused"/>


<circle cx="0" cy="0" r="2.366251302057132" fill="#e0ff77" opacity="0.9" transform="translate(1103.8472900390625 464.98126220703125)" style="opacity:0.9;animation-play-state:paused"/>
<path id="path1" d="M 1299.5578962352781 552.2186848397437 c 0 21.613090895775233 -5.288309474498194 6.208015470063099 -11.496324944561295 6.208015470063099 S 1276.5652463461554 573.8317757355189 1276.5652463461554 552.2186848397437 s 5.288309474498194 -6.208015470063099 11.496324944561295 -6.208015470063099 S 1299.5578962352781 530.6055939439684 1299.5578962352781 552.2186848397437 z" fill="none" stroke="none" style="animation-play-state:paused"/>


<circle cx="0" cy="0" r="2.442896936810824" fill="#ff708e" opacity="0.9" transform="translate(1278.3658447265625 540.853271484375)" style="opacity:0.9;animation-play-state:paused"/>
<path id="path2" d="M 1069.6902122717595 338.6469927532601 c 0 33.204657451836376 -8.12454384459826 9.537507991484917 -17.662051836083176 9.537507991484917 S 1034.366108599593 371.8516502050965 1034.366108599593 338.6469927532601 s 8.12454384459826 -9.537507991484917 17.662051836083176 -9.537507991484917 S 1069.6902122717595 305.4423353014237 1069.6902122717595 338.6469927532601 z" fill="none" stroke="none" style="animation-play-state:paused"/>


<circle cx="0" cy="0" r="1.7349299164907663" fill="#9df871" opacity="0.9" transform="translate(1068.1646728515625 354.41815185546875)" style="opacity:0.9;animation-play-state:paused"/>
<path id="path3" d="M 880.4613172589408 674.9707025845602 c 0 34.02651956844632 -8.325637766747503 9.773574769660113 -18.099212536407617 9.773574769660113 S 844.2628921861254 708.9972221530065 844.2628921861254 674.9707025845602 s 8.325637766747503 -9.773574769660113 18.099212536407617 -9.773574769660113 S 880.4613172589408 640.9441830161138 880.4613172589408 674.9707025845602 z" fill="none" stroke="none" style="animation-play-state:paused"/>


<circle cx="0" cy="0" r="1.6338955965983293" fill="#51cacc" opacity="0.9" transform="translate(871.3389282226562 689.7203979492188)" style="opacity:0.9;animation-play-state:paused"/>
<path id="path4" d="M 915.5870277247615 644.8369979136248 c 0 26.20839533708975 -6.412692476096428 7.5279433415045025 -13.940635817600931 7.5279433415045025 S 887.7057560895597 671.0453932507146 887.7057560895597 644.8369979136248 s 6.412692476096428 -7.5279433415045025 13.940635817600931 -7.5279433415045025 S 915.5870277247615 618.6286025765351 915.5870277247615 644.8369979136248 z" fill="none" stroke="none" style="animation-play-state:paused"/>


<circle cx="0" cy="0" r="1.6461373242409838" fill="#9df871" opacity="0.9" transform="translate(896.1644287109375 634.6949462890625)" style="opacity:0.9;animation-play-state:paused"/>
<path id="path5" d="M 416.50675566206075 890.8236599296408 c 0 21.77033894010982 -5.326785059814105 6.253182461520906 -11.57996752133501 6.253182461520906 S 393.34682061939077 912.5939988697506 393.34682061939077 890.8236599296408 s 5.326785059814105 -6.253182461520906 11.57996752133501 -6.253182461520906 S 416.50675566206075 869.053320989531 416.50675566206075 890.8236599296408 z" fill="none" stroke="none" style="animation-play-state:paused"/>


<circle cx="0" cy="0" r="2.240785444842921" fill="#ff708e" opacity="0.9" transform="translate(412.6536560058594 901.8648071289062)" style="opacity:0.9;animation-play-state:paused"/>
<path id="path6" d="M 375.7406395644276 369.8836920761408 c 0 25.551401983295737 -6.251938783146828 7.339232484563669 -13.591171267710498 7.339232484563669 S 348.55829702900667 395.43509405943655 348.55829702900667 369.8836920761408 s 6.251938783146828 -7.339232484563669 13.591171267710498 -7.339232484563669 S 375.7406395644276 344.332290092845 375.7406395644276 369.8836920761408 z" fill="none" stroke="none" style="animation-play-state:paused"/>


<circle cx="0" cy="0" r="1.636839914180429" fill="#ff708e" opacity="0.9" transform="translate(349.2763977050781 380.4999694824219)" style="opacity:0.9;animation-play-state:paused"/>
<path id="path7" d="M 1294.2057471417495 67.45925259388042 c 0 27.860980803212307 -6.817048494403011 8.002622145603535 -14.819670640006546 8.002622145603535 S 1264.5664058617365 95.32023339709272 1264.5664058617365 67.45925259388042 s 6.817048494403011 -8.002622145603535 14.819670640006546 -8.002622145603535 S 1294.2057471417495 39.598271790668115 1294.2057471417495 67.45925259388042 z" fill="none" stroke="none" style="animation-play-state:paused"/>


<circle cx="0" cy="0" r="2.4775502557718627" fill="#51cacc" opacity="0.9" transform="translate(1268.538818359375 52.79888916015625)" style="opacity:0.9;animation-play-state:paused"/>
<path id="path8" d="M 1171.9711147973076 905.2697097421186 c 0 35.671000508457794 -8.728010762707756 10.245925677961282 -18.973936440669036 10.245925677961282 S 1134.0232419159697 940.9407102505764 1134.0232419159697 905.2697097421186 s 8.728010762707756 -10.245925677961282 18.973936440669036 -10.245925677961282 S 1171.9711147973076 869.5987092336608 1171.9711147973076 905.2697097421186 z" fill="none" stroke="none" style="animation-play-state:paused"/>


<circle cx="0" cy="0" r="1.3673400092482904" fill="#de9dd6" opacity="0.9" transform="translate(1144.0283203125 890.1912231445312)" style="opacity:0.9;animation-play-state:paused"/>
<path id="path9" d="M 264.65241329559456 200.82228706111093 c 0 27.085573232280204 -6.627321110026006 7.779898694378357 -14.407219804404363 7.779898694378357 S 235.8379736867858 227.90786029339114 235.8379736867858 200.82228706111093 s 6.627321110026006 -7.779898694378357 14.407219804404363 -7.779898694378357 S 264.65241329559456 173.73671382883072 264.65241329559456 200.82228706111093 z" fill="none" stroke="none" style="animation-play-state:paused"/>


<circle cx="0" cy="0" r="1.579951558625809" fill="#ff708e" opacity="0.9" transform="translate(237.34983825683594 214.23878479003906)" style="opacity:0.9;animation-play-state:paused"/>
<path id="path10" d="M 879.8449975971587 895.1604797273678 c 0 24.002756008808028 -5.8730147681126015 6.894408640827837 -12.76742340894044 6.894408640827837 S 854.3101507792778 919.1632357361758 854.3101507792778 895.1604797273678 s 5.8730147681126015 -6.894408640827837 12.76742340894044 -6.894408640827837 S 879.8449975971587 871.1577237185599 879.8449975971587 895.1604797273678 z" fill="none" stroke="none" style="animation-play-state:paused"/>


<circle cx="0" cy="0" r="2.368342938568478" fill="#51cacc" opacity="0.9" transform="translate(860.3571166992188 905.9012451171875)" style="opacity:0.9;animation-play-state:paused"/>
<path id="path11" d="M 1242.0324223744444 13.941371799546467 c 0 20.251384793493095 -4.955126066492991 5.816887121535252 -10.772013188028243 5.816887121535252 S 1220.488395998388 34.19275659303956 1220.488395998388 13.941371799546467 s 4.955126066492991 -5.816887121535252 10.772013188028243 -5.816887121535252 S 1242.0324223744444 -6.3100129939466285 1242.0324223744444 13.941371799546467 z" fill="none" stroke="none" style="animation-play-state:paused"/>


<circle cx="0" cy="0" r="1.3323608417286257" fill="#ff708e" opacity="0.9" transform="translate(1221.60205078125 23.94297981262207)" style="opacity:0.9;animation-play-state:paused"/>
<path id="path12" d="M 1560.835879180415 124.28606180383314 c 0 27.703095524157725 -6.778416989953485 7.957272118641049 -14.735689108594535 7.957272118641049 S 1531.3645009632262 151.98915732799085 1531.3645009632262 124.28606180383314 s 6.778416989953485 -7.957272118641049 14.735689108594535 -7.957272118641049 S 1560.835879180415 96.58296627967542 1560.835879180415 124.28606180383314 z" fill="none" stroke="none" style="animation-play-state:paused"/>


<circle cx="0" cy="0" r="2.2125663227308183" fill="#de9dd6" opacity="0.9" transform="translate(1560.4285888671875 133.51914978027344)" style="opacity:0.9;animation-play-state:paused"/>
<path id="path13" d="M 789.6728604273956 950.5123386197287 c 0 22.762774256972772 -5.569614977769933 6.538243669556009 -12.107858647325942 6.538243669556009 S 765.4571431327436 973.2751128767014 765.4571431327436 950.5123386197287 s 5.569614977769933 -6.538243669556009 12.107858647325942 -6.538243669556009 S 789.6728604273956 927.7495643627559 789.6728604273956 950.5123386197287 z" fill="none" stroke="none" style="animation-play-state:paused"/>


<circle cx="0" cy="0" r="1.7087728869379148" fill="#ff708e" opacity="0.9" transform="translate(786.4495849609375 962.4990844726562)" style="opacity:0.9;animation-play-state:paused"/>
<path id="path14" d="M 28.917326430379536 577.806646255773 c 0 22.436393704058137 -5.489755906312097 6.444496063931593 -11.93425197024369 6.444496063931593 S 5.0488224898921565 600.2430399598311 5.0488224898921565 577.806646255773 s 5.489755906312097 -6.444496063931593 11.93425197024369 -6.444496063931593 S 28.917326430379536 555.3702525517149 28.917326430379536 577.806646255773 z" fill="none" stroke="none" style="animation-play-state:paused"/>


<circle cx="0" cy="0" r="1.681075022690968" fill="#de9dd6" opacity="0.9" transform="translate(16.27887725830078 571.3003540039062)" style="opacity:0.9;animation-play-state:paused"/>
<path id="path15" d="M 823.3219845174774 739.3375206566154 c 0 32.03959442858004 -7.839475232524902 9.202862229485756 -17.042337462010657 9.202862229485756 S 789.2373095934561 771.3771150851954 789.2373095934561 739.3375206566154 s 7.839475232524902 -9.202862229485756 17.042337462010657 -9.202862229485756 S 823.3219845174774 707.2979262280354 823.3219845174774 739.3375206566154 z" fill="none" stroke="none" style="animation-play-state:paused"/>


<circle cx="0" cy="0" r="1.3787791901167037" fill="#e0ff77" opacity="0.9" transform="translate(798.0043334960938 725.6031494140625)" style="opacity:0.9;animation-play-state:paused"/>
<path id="path16" d="M 706.3546493270404 818.0918783100144 c 0 34.331942489258054 -8.400368906946118 9.861302629893272 -18.26167153683939 9.861302629893272 S 669.8313062533617 852.4238207992724 669.8313062533617 818.0918783100144 s 8.400368906946118 -9.861302629893272 18.26167153683939 -9.861302629893272 S 706.3546493270404 783.7599358207564 706.3546493270404 818.0918783100144 z" fill="none" stroke="none" style="animation-play-state:paused"/>


<circle cx="0" cy="0" r="1.9973865400126922" fill="#e0ff77" opacity="0.9" transform="translate(703.2447509765625 799.910888671875)" style="opacity:0.9;animation-play-state:paused"/>
<path id="path17" d="M 925.9353785531381 120.00680164090389 c 0 32.30064542854121 -7.903349413366464 9.277844963517156 -17.18119437688362 9.277844963517156 S 891.5729897993709 152.3074470694451 891.5729897993709 120.00680164090389 s 7.903349413366464 -9.277844963517156 17.18119437688362 -9.277844963517156 S 925.9353785531381 87.70615621236269 925.9353785531381 120.00680164090389 z" fill="none" stroke="none" style="animation-play-state:paused"/>


<circle cx="0" cy="0" r="1.6496147088166249" fill="#9df871" opacity="0.9" transform="translate(925.9154663085938 117.34667205810547)" style="opacity:0.9;animation-play-state:paused"/>
<path id="path18" d="M 1259.5850412968114 136.7266429135295 c 0 28.93182557912165 -7.079063705529765 8.310205219534943 -15.389268925064707 8.310205219534943 S 1228.806503446682 165.65846849265114 1228.806503446682 136.7266429135295 s 7.079063705529765 -8.310205219534943 15.389268925064707 -8.310205219534943 S 1259.5850412968114 107.79481733440785 1259.5850412968114 136.7266429135295 z" fill="none" stroke="none" style="animation-play-state:paused"/>


<circle cx="0" cy="0" r="1.4725697990631605" fill="#ff708e" opacity="0.9" transform="translate(1251.5966796875 149.0664520263672)" style="opacity:0.9;animation-play-state:paused"/>
<path id="path19" d="M 161.16743261359528 287.5913615511 c 0 21.430353861806555 -5.243597221505859 6.155527173072096 -11.399124394577955 6.155527173072096 S 138.36918382443935 309.0217154129066 138.36918382443935 287.5913615511 s 5.243597221505859 -6.155527173072096 11.399124394577955 -6.155527173072096 S 161.16743261359528 266.16100768929346 161.16743261359528 287.5913615511 z" fill="none" stroke="none" style="animation-play-state:paused"/>


<circle cx="0" cy="0" r="2.026205473746123" fill="#51cacc" opacity="0.9" transform="translate(145.5249786376953 279.491943359375)" style="opacity:0.9;animation-play-state:paused"/>
<path id="path20" d="M 1031.9491622494022 795.5834840193392 c 0 37.062268371882624 -9.068427367588301 10.645545170647138 -19.71397253823544 10.645545170647138 S 992.5212171729313 832.6457523912218 992.5212171729313 795.5834840193392 s 9.068427367588301 -10.645545170647138 19.71397253823544 -10.645545170647138 S 1031.9491622494022 758.5212156474565 1031.9491622494022 795.5834840193392 z" fill="none" stroke="none" style="animation-play-state:paused"/>


<circle cx="0" cy="0" r="1.7575343411124578" fill="#e0ff77" opacity="0.9" transform="translate(1008.4558715820312 783.9381103515625)" style="opacity:0.9;animation-play-state:paused"/>
<path id="path21" d="M 671.4430117284768 442.11079456857846 c 0 32.42459832747166 -7.9336783141685965 9.313448455763137 -17.247126769931732 9.313448455763137 S 636.9487581886134 474.5353928960501 636.9487581886134 442.11079456857846 s 7.9336783141685965 -9.313448455763137 17.247126769931732 -9.313448455763137 S 671.4430117284768 409.6861962411068 671.4430117284768 442.11079456857846 z" fill="none" stroke="none" style="animation-play-state:paused"/>


<circle cx="0" cy="0" r="1.7173499057280837" fill="#ff708e" opacity="0.9" transform="translate(661.8912353515625 428.7982177734375)" style="opacity:0.9;animation-play-state:paused"/>
<path id="path22" d="M 730.4306448593901 520.7230387544005 c 0 34.523091292079435 -8.447139358700287 9.91620707325686 -18.363346431957147 9.91620707325686 S 693.7039519954759 555.24613004648 693.7039519954759 520.7230387544005 s 8.447139358700287 -9.91620707325686 18.363346431957147 -9.91620707325686 S 730.4306448593901 486.19994746232106 730.4306448593901 520.7230387544005 z" fill="none" stroke="none" style="animation-play-state:paused"/>


<circle cx="0" cy="0" r="2.455485562023453" fill="#51cacc" opacity="0.9" transform="translate(697.7738037109375 502.3221435546875)" style="opacity:0.9;animation-play-state:paused"/>
<path id="path23" d="M 614.9753622482829 172.0287671326599 c 0 31.61160770084927 -7.734755075739715 9.079929871520536 -16.81468494726025 9.079929871520536 S 581.3459923537623 203.64037483350918 581.3459923537623 172.0287671326599 s 7.734755075739715 -9.079929871520536 16.81468494726025 -9.079929871520536 S 614.9753622482829 140.41715943181063 614.9753622482829 172.0287671326599 z" fill="none" stroke="none" style="animation-play-state:paused"/>


<circle cx="0" cy="0" r="2.245874267452421" fill="#ff708e" opacity="0.9" transform="translate(582.52001953125 186.26058959960938)" style="opacity:0.9;animation-play-state:paused"/>
<path id="path24" d="M 1077.9392456906357 217.7709864085894 c 0 19.669817617485442 -4.81282771491665 5.649841230554329 -10.462668945470979 5.649841230554329 S 1057.0139077996937 237.44080402607486 1057.0139077996937 217.7709864085894 s 4.81282771491665 -5.649841230554329 10.462668945470979 -5.649841230554329 S 1077.9392456906357 198.10116879110396 1077.9392456906357 217.7709864085894 z" fill="none" stroke="none" style="animation-play-state:paused"/>


<circle cx="0" cy="0" r="1.418535760274184" fill="#ff708e" opacity="0.9" transform="translate(1075.394287109375 228.21072387695312)" style="opacity:0.9;animation-play-state:paused"/>
<path id="path25" d="M 836.90568500318 374.07785097783403 c 0 36.71061170412428 -8.98238371483892 10.544537404376124 -19.526921119215043 10.544537404376124 S 797.85184276475 410.7884626819583 797.85184276475 374.07785097783403 s 8.98238371483892 -10.544537404376124 19.526921119215043 -10.544537404376124 S 836.90568500318 337.36723927370974 836.90568500318 374.07785097783403 z" fill="none" stroke="none" style="animation-play-state:paused"/>


<circle cx="0" cy="0" r="2.3305091503054074" fill="#ff708e" opacity="0.9" transform="translate(807.4442749023438 357.94781494140625)" style="opacity:0.9;animation-play-state:paused"/>
<path id="path26" d="M 261.5535288774829 374.4123074697108 c 0 25.364530039572113 -6.206214796916581 7.285556500728161 -13.49177129764474 7.285556500728161 S 234.56998628219344 399.7768375092829 234.56998628219344 374.4123074697108 s 6.206214796916581 -7.285556500728161 13.49177129764474 -7.285556500728161 S 261.5535288774829 349.0477774301387 261.5535288774829 374.4123074697108 z" fill="none" stroke="none" style="animation-play-state:paused"/>


<circle cx="0" cy="0" r="2.4362651934393" fill="#de9dd6" opacity="0.9" transform="translate(234.57821655273438 372.8898010253906)" style="opacity:0.9;animation-play-state:paused"/>
<path id="path27" d="M 1153.2728549508042 44.38133086835793 c 0 34.86359647398939 -8.530454456401658 10.014011753167166 -18.544466209568824 10.014011753167166 S 1116.1839225316667 79.24492734234732 1116.1839225316667 44.38133086835793 s 8.530454456401658 -10.014011753167166 18.544466209568824 -10.014011753167166 S 1153.2728549508042 9.517734394368539 1153.2728549508042 44.38133086835793 z" fill="none" stroke="none" style="animation-play-state:paused"/>


<circle cx="0" cy="0" r="2.2870418846134295" fill="#9df871" opacity="0.9" transform="translate(1149.018798828125 62.94254684448242)" style="opacity:0.9;animation-play-state:paused"/>
<path id="path28" d="M 312.3952711470963 858.9837437395429 c 0 34.98657010440065 -8.560543748949094 10.049333966157633 -18.609877715106727 10.049333966157633 S 275.17551571688284 893.9703138439436 275.17551571688284 858.9837437395429 s 8.560543748949094 -10.049333966157633 18.609877715106727 -10.049333966157633 S 312.3952711470963 823.9971736351422 312.3952711470963 858.9837437395429 z" fill="none" stroke="none" style="animation-play-state:paused"/>


<circle cx="0" cy="0" r="1.5918255821175087" fill="#9df871" opacity="0.9" transform="translate(275.6898193359375 870.6426391601562)" style="opacity:0.9;animation-play-state:paused"/>
<path id="path29" d="M 177.01784322475393 189.90886866769384 c 0 34.83059069522384 -8.522378574363279 10.00453136990472 -18.526909944268 10.00453136990472 S 139.96402333621793 224.73945936291767 139.96402333621793 189.90886866769384 s 8.522378574363279 -10.00453136990472 18.526909944268 -10.00453136990472 S 177.01784322475393 155.07827797247 177.01784322475393 189.90886866769384 z" fill="none" stroke="none" style="animation-play-state:paused"/>


<circle cx="0" cy="0" r="1.9317945930271774" fill="#9df871" opacity="0.9" transform="translate(175.7661895751953 174.36656188964844)" style="opacity:0.9;animation-play-state:paused"/>
<path id="path30" d="M 1402.0920091396433 582.9364879707947 c 0 24.941323654017015 -6.102664298323312 7.163997219770844 -13.266661518094157 7.163997219770844 S 1375.5586861034549 607.8778116248117 1375.5586861034549 582.9364879707947 s 6.102664298323312 -7.163997219770844 13.266661518094157 -7.163997219770844 S 1402.0920091396433 557.9951643167777 1402.0920091396433 582.9364879707947 z" fill="none" stroke="none" style="animation-play-state:paused"/>


<circle cx="0" cy="0" r="1.400870907000085" fill="#51cacc" opacity="0.9" transform="translate(1392.2529296875 591.27490234375)" style="opacity:0.9;animation-play-state:paused"/>
<path id="path31" d="M 27.0235184471688 426.51172843808973 c 0 20.298318511122623 -4.966609848466174 5.83036808298203 -10.796977931448204 5.83036808298203 S 5.429562584272393 446.81004694921234 5.429562584272393 426.51172843808973 s 4.966609848466174 -5.83036808298203 10.796977931448204 -5.83036808298203 S 27.0235184471688 406.21340992696713 27.0235184471688 426.51172843808973 z" fill="none" stroke="none" style="animation-play-state:paused"/>


<circle cx="0" cy="0" r="1.937172553060285" fill="#9df871" opacity="0.9" transform="translate(10.197929382324219 417.1315612792969)" style="opacity:0.9;animation-play-state:paused"/>
<path id="path32" d="M 650.0450562393103 454.5228752751534 c 0 24.52546388774296 -6.00091137678817 7.0445481379687225 -13.045459514756892 7.0445481379687225 S 623.9541372097965 479.04833916289635 623.9541372097965 454.5228752751534 s 6.00091137678817 -7.0445481379687225 13.045459514756892 -7.0445481379687225 S 650.0450562393103 429.99741138741047 650.0450562393103 454.5228752751534 z" fill="none" stroke="none" style="animation-play-state:paused"/>


<circle cx="0" cy="0" r="1.825112153719822" fill="#51cacc" opacity="0.9" transform="translate(649.1643676757812 443.5818786621094)" style="opacity:0.9;animation-play-state:paused"/>
<path id="path33" d="M 159.22639020142688 43.73149594270829 c 0 31.096548288425126 -7.6087299003593385 8.931987274334876 -16.540717174694215 8.931987274334876 S 126.14495585203846 74.82804423113342 126.14495585203846 43.73149594270829 s 7.6087299003593385 -8.931987274334876 16.540717174694215 -8.931987274334876 S 159.22639020142688 12.634947654283167 159.22639020142688 43.73149594270829 z" fill="none" stroke="none" style="animation-play-state:paused"/>


<circle cx="0" cy="0" r="2.0171136984724236" fill="#e0ff77" opacity="0.9" transform="translate(159.17105102539062 47.970375061035156)" style="opacity:0.9;animation-play-state:paused"/>
<path id="path34" d="M 230.14119058020685 684.5802369032596 c 0 33.217705986253314 -8.127736571104533 9.54125597477489 -17.668992545879423 9.54125597477489 S 194.803205488448 717.7979428895129 194.803205488448 684.5802369032596 s 8.127736571104533 -9.54125597477489 17.668992545879423 -9.54125597477489 S 230.14119058020685 651.3625309170062 230.14119058020685 684.5802369032596 z" fill="none" stroke="none" style="animation-play-state:paused"/>


<circle cx="0" cy="0" r="2.099034129725853" fill="#51cacc" opacity="0.9" transform="translate(229.51893615722656 672.4994506835938)" style="opacity:0.9;animation-play-state:paused"/>
<path id="path35" d="M 1436.9958719085146 59.31458856374517 c 0 23.952023810273865 -5.860601570598924 6.879836626355259 -12.740438196954182 6.879836626355259 S 1411.5149955146064 83.26661237401903 1411.5149955146064 59.31458856374517 s 5.860601570598924 -6.879836626355259 12.740438196954182 -6.879836626355259 S 1436.9958719085146 35.362564753471304 1436.9958719085146 59.31458856374517 z" fill="none" stroke="none" style="animation-play-state:paused"/>


<circle cx="0" cy="0" r="2.219887387737685" fill="#ff708e" opacity="0.9" transform="translate(1411.9228515625 50.893157958984375)" style="opacity:0.9;animation-play-state:paused"/>
<path id="path36" d="M 480.9719006852698 347.0275412211198 c 0 26.28953245045084 -6.432545174046481 7.551248682576305 -13.983793856622786 7.551248682576305 S 453.0043129720242 373.31707367157065 453.0043129720242 347.0275412211198 s 6.432545174046481 -7.551248682576305 13.983793856622786 -7.551248682576305 S 480.9719006852698 320.73800877066896 480.9719006852698 347.0275412211198 z" fill="none" stroke="none" style="animation-play-state:paused"/>


<circle cx="0" cy="0" r="1.5405073039019777" fill="#e0ff77" opacity="0.9" transform="translate(453.51019287109375 337.376953125)" style="opacity:0.9;animation-play-state:paused"/>
<path id="path37" d="M 833.9125153580645 670.222354551029 c 0 23.400574666510778 -5.725672524784551 6.721441659529692 -12.447114184314243 6.721441659529692 S 809.018286989436 693.6229292175398 809.018286989436 670.222354551029 s 5.725672524784551 -6.721441659529692 12.447114184314243 -6.721441659529692 S 833.9125153580645 646.8217798845182 833.9125153580645 670.222354551029 z" fill="none" stroke="none" style="animation-play-state:paused"/>


<circle cx="0" cy="0" r="1.2884998423584677" fill="#9df871" opacity="0.9" transform="translate(817.9181518554688 678.2626342773438)" style="opacity:0.9;animation-play-state:paused"/>
<path id="path38" d="M 1071.765279706174 910.5578206423913 c 0 25.91274517868613 -6.340352543721074 7.44302255132474 -13.783375095045812 7.44302255132474 S 1044.1985295160823 936.4705658210775 1044.1985295160823 910.5578206423913 s 6.340352543721074 -7.44302255132474 13.783375095045812 -7.44302255132474 S 1071.765279706174 884.6450754637052 1071.765279706174 910.5578206423913 z" fill="none" stroke="none" style="animation-play-state:paused"/>


<circle cx="0" cy="0" r="1.7371554693689648" fill="#9df871" opacity="0.9" transform="translate(1051.682373046875 921.3253784179688)" style="opacity:0.9;animation-play-state:paused"/>
<path id="path39" d="M 757.5941902206358 156.65525805201221 c 0 33.98336156671212 -8.315077830152966 9.761178322353482 -18.076256152506446 9.761178322353482 S 721.441677915623 190.63861961872433 721.441677915623 156.65525805201221 s 8.315077830152966 -9.761178322353482 18.076256152506446 -9.761178322353482 S 757.5941902206358 122.6718964853001 757.5941902206358 156.65525805201221 z" fill="none" stroke="none" style="animation-play-state:paused"/>


<circle cx="0" cy="0" r="2.0501805820072962" fill="#ff708e" opacity="0.9" transform="translate(722.3406982421875 142.79661560058594)" style="opacity:0.9;animation-play-state:paused"/></g></svg>