<?xml version="1.0" encoding="utf-8"?><svg xmlns="http://www.w3.org/2000/svg" xmlns:xlink="http://www.w3.org/1999/xlink" preserveAspectRatio="xMidYMid" viewBox="0 0 1718 969" style="z-index:1;margin-right:-2px;display:block;background-repeat-y:initial;background-repeat-x:initial;background-color:rgb(17, 24, 39);animation-play-state:paused"><g transform="translate(859,484.5) scale(1,1) translate(-859,-484.5)" style="transform:matrix(1, 0, 0, 1, 0, 0);animation-play-state:paused"><path id="path0" d="M 1398.4896480220373 830.6281477662641 c 0 24.32577607796529 -5.952051593544698 6.98719100111769 -12.939242594662389 6.98719100111769 S 1372.6111628327126 854.9539238442294 1372.6111628327126 830.6281477662641 s 5.952051593544698 -6.98719100111769 12.939242594662389 -6.98719100111769 S 1398.4896480220373 806.3023716882988 1398.4896480220373 830.6281477662641 z" fill="none" stroke="none" style="animation-play-state:paused"/>


<circle cx="0" cy="0" r="4.417003915327522" fill="#9df871" opacity="0.9" transform="translate(1373.299072265625 840.75390625)" style="opacity:0.9;animation-play-state:paused"/>
<path id="path1" d="M 1092.2161877858775 84.87599045946737 c 0 36.19730372529215 -8.85678708172042 10.397097878541363 -19.253884960261782 10.397097878541363 S 1053.708417865354 121.07329418475953 1053.708417865354 84.87599045946737 s 8.85678708172042 -10.397097878541363 19.253884960261782 -10.397097878541363 S 1092.2161877858775 48.67868673417522 1092.2161877858775 84.87599045946737 z" fill="none" stroke="none" style="animation-play-state:paused"/>


<circle cx="0" cy="0" r="7.917696462363204" fill="#e0ff77" opacity="0.9" transform="translate(1078.9609375 72.08199310302734)" style="opacity:0.9;animation-play-state:paused"/>
<path id="path2" d="M 651.4877074526298 595.3003212762018 c 0 33.43549084522084 -8.181024355745524 9.603811200223008 -17.78483555596853 9.603811200223008 S 615.9180363406927 628.7358121214227 615.9180363406927 595.3003212762018 s 8.181024355745524 -9.603811200223008 17.78483555596853 -9.603811200223008 S 651.4877074526298 561.8648304309809 651.4877074526298 595.3003212762018 z" fill="none" stroke="none" style="animation-play-state:paused"/>


<circle cx="0" cy="0" r="6.276856921865291" fill="#de9dd6" opacity="0.9" transform="translate(650.1351928710938 610.6942749023438)" style="opacity:0.9;animation-play-state:paused"/>
<path id="path3" d="M 1192.1049426759807 145.2978129097289 c 0 24.133578174105633 -5.9050244468556325 6.931985220221831 -12.837009667077464 6.931985220221831 S 1166.430923341826 169.4313910838345 1166.430923341826 145.2978129097289 s 5.9050244468556325 -6.931985220221831 12.837009667077464 -6.931985220221831 S 1192.1049426759807 121.16423473562325 1192.1049426759807 145.2978129097289 z" fill="none" stroke="none" style="animation-play-state:paused"/>


<circle cx="0" cy="0" r="7.171962591566989" fill="#e0ff77" opacity="0.9" transform="translate(1192.075439453125 148.0558319091797)" style="opacity:0.9;animation-play-state:paused"/>
<path id="path4" d="M 138.2432532765565 244.65802649630123 c 0 30.171617908617044 -7.382417147853105 8.666315782262343 -16.04873293011545 8.666315782262343 S 106.14578741632559 274.82964440491827 106.14578741632559 244.65802649630123 s 7.382417147853105 -8.666315782262343 16.04873293011545 -8.666315782262343 S 138.2432532765565 214.4864085876842 138.2432532765565 244.65802649630123 z" fill="none" stroke="none" style="animation-play-state:paused"/>


<circle cx="0" cy="0" r="7.075762243723181" fill="#de9dd6" opacity="0.9" transform="translate(125.57069396972656 235.02218627929688)" style="opacity:0.9;animation-play-state:paused"/>
<path id="path5" d="M 1583.8006402714823 187.19316091095098 c 0 24.521860980704506 -6.000029814427698 7.043513260415125 -13.043543074842823 7.043513260415125 S 1557.7135541217967 211.71502189165548 1557.7135541217967 187.19316091095098 s 6.000029814427698 -7.043513260415125 13.043543074842823 -7.043513260415125 S 1583.8006402714823 162.67129993024648 1583.8006402714823 187.19316091095098 z" fill="none" stroke="none" style="animation-play-state:paused"/>


<circle cx="0" cy="0" r="7.506009024928905" fill="#e0ff77" opacity="0.9" transform="translate(1575.188720703125 196.1315460205078)" style="opacity:0.9;animation-play-state:paused"/>
<path id="path6" d="M 1657.4444776901069 907.7716721833616 c 0 24.348634398914925 -5.957644586968545 6.9937566890500324 -12.951401276018577 6.9937566890500324 S 1631.5416751380699 932.1203065822765 1631.5416751380699 907.7716721833616 s 5.957644586968545 -6.9937566890500324 12.951401276018577 -6.9937566890500324 S 1657.4444776901069 883.4230377844467 1657.4444776901069 907.7716721833616 z" fill="none" stroke="none" style="animation-play-state:paused"/>


<circle cx="0" cy="0" r="7.389102023871242" fill="#e0ff77" opacity="0.9" transform="translate(1657.3978271484375 911.1741943359375)" style="opacity:0.9;animation-play-state:paused"/>
<path id="path7" d="M 520.4751711783639 769.929865807075 c 0 22.933154465513724 -5.611303752200166 6.587182665626282 -12.198486417826448 6.587182665626282 S 496.07819834271095 792.8630202725888 496.07819834271095 769.929865807075 s 5.611303752200166 -6.587182665626282 12.198486417826448 -6.587182665626282 S 520.4751711783639 746.9967113415612 520.4751711783639 769.929865807075 z" fill="none" stroke="none" style="animation-play-state:paused"/>


<circle cx="0" cy="0" r="5.902862855117091" fill="#9df871" opacity="0.9" transform="translate(496.33990478515625 776.8748779296875)" style="opacity:0.9;animation-play-state:paused"/>
<path id="path8" d="M 1371.877239038361 692.2947840767596 c 0 33.48921845172058 -8.194170472229503 9.619243597834636 -17.81341407006414 9.619243597834636 S 1336.2504108982325 725.7840025284802 1336.2504108982325 692.2947840767596 s 8.194170472229503 -9.619243597834636 17.81341407006414 -9.619243597834636 S 1371.877239038361 658.805565625039 1371.877239038361 692.2947840767596 z" fill="none" stroke="none" style="animation-play-state:paused"/>


<circle cx="0" cy="0" r="5.009324189323559" fill="#de9dd6" opacity="0.9" transform="translate(1346.99853515625 679.2858276367188)" style="opacity:0.9;animation-play-state:paused"/>
<path id="path9" d="M 628.7942072928931 601.4155901061453 c 0 36.876015544363696 -9.022854867237923 10.592047018061912 -19.614901885299837 10.592047018061912 S 589.5644035222936 638.2916056505089 589.5644035222936 601.4155901061453 s 9.022854867237923 -10.592047018061912 19.614901885299837 -10.592047018061912 S 628.7942072928931 564.5395745617816 628.7942072928931 601.4155901061453 z" fill="none" stroke="none" style="animation-play-state:paused"/>


<circle cx="0" cy="0" r="4.961856505338034" fill="#de9dd6" opacity="0.9" transform="translate(628.5304565429688 610.6753540039062)" style="opacity:0.9;animation-play-state:paused"/>
<path id="path10" d="M 1269.127137633636 440.9540069679353 c 0 23.21666380582409 -5.680673058871851 6.668616199545218 -12.34928925841707 6.668616199545218 S 1244.428559116802 464.1706707737594 1244.428559116802 440.9540069679353 s 5.680673058871851 -6.668616199545218 12.34928925841707 -6.668616199545218 S 1269.127137633636 417.7373431621112 1269.127137633636 440.9540069679353 z" fill="none" stroke="none" style="animation-play-state:paused"/>


<circle cx="0" cy="0" r="6.43854897191426" fill="#ff708e" opacity="0.9" transform="translate(1253.99072265625 448.47393798828125)" style="opacity:0.9;animation-play-state:paused"/>
<path id="path11" d="M 1021.6588370639886 721.7468191771864 c 0 20.92529019651714 -5.120017814041427 6.010455694744285 -11.130473508785713 6.010455694744285 S 999.3978900464172 742.6721093737035 999.3978900464172 721.7468191771864 s 5.120017814041427 -6.010455694744285 11.130473508785713 -6.010455694744285 S 1021.6588370639886 700.8215289806692 1021.6588370639886 721.7468191771864 z" fill="none" stroke="none" style="animation-play-state:paused"/>


<circle cx="0" cy="0" r="4.067059951813571" fill="#de9dd6" opacity="0.9" transform="translate(1011.0450439453125 727.7933349609375)" style="opacity:0.9;animation-play-state:paused"/>
<path id="path12" d="M 106.88726601994539 149.86291116906025 c 0 36.85777841247124 -9.018392590285515 10.586808692943867 -19.60520128322938 10.586808692943867 S 67.67686345348663 186.7206895815315 67.67686345348663 149.86291116906025 s 9.018392590285515 -10.586808692943867 19.60520128322938 -10.586808692943867 S 106.88726601994539 113.005132756589 106.88726601994539 149.86291116906025 z" fill="none" stroke="none" style="animation-play-state:paused"/>


<circle cx="0" cy="0" r="7.45930292195131" fill="#9df871" opacity="0.9" transform="translate(104.1466293334961 168.99832153320312)" style="opacity:0.9;animation-play-state:paused"/>
<path id="path13" d="M 966.8376217689533 675.7708227453744 c 0 25.17978432866631 -6.161011059141757 7.232491243340324 -13.39350230248208 7.232491243340324 S 940.0506171639893 700.9506070740407 940.0506171639893 675.7708227453744 s 6.161011059141757 -7.232491243340324 13.39350230248208 -7.232491243340324 S 966.8376217689533 650.5910384167081 966.8376217689533 675.7708227453744 z" fill="none" stroke="none" style="animation-play-state:paused"/>


<circle cx="0" cy="0" r="7.802486527085323" fill="#51cacc" opacity="0.9" transform="translate(940.0742797851562 678.3079833984375)" style="opacity:0.9;animation-play-state:paused"/>
<path id="path14" d="M 270.99665648088177 559.2094159722851 c 0 25.54573815333031 -6.250552952410607 7.337605639786366 -13.588158592196972 7.337605639786366 S 243.82033929648782 584.7551541256154 243.82033929648782 559.2094159722851 s 6.250552952410607 -7.337605639786366 13.588158592196972 -7.337605639786366 S 270.99665648088177 533.6636778189549 270.99665648088177 559.2094159722851 z" fill="none" stroke="none" style="animation-play-state:paused"/>


<circle cx="0" cy="0" r="6.451047858706765" fill="#9df871" opacity="0.9" transform="translate(243.820556640625 559.0973510742188)" style="opacity:0.9;animation-play-state:paused"/>
<path id="path15" d="M 1375.1367814791276 160.62509619047327 c 0 26.028395559144773 -6.36864997723755 7.47624127762669 -13.84489125486424 7.47624127762669 S 1347.4469989693991 186.65349174961804 1347.4469989693991 160.62509619047327 s 6.36864997723755 -7.47624127762669 13.84489125486424 -7.47624127762669 S 1375.1367814791276 134.5967006313285 1375.1367814791276 160.62509619047327 z" fill="none" stroke="none" style="animation-play-state:paused"/>


<circle cx="0" cy="0" r="4.933135594547106" fill="#9df871" opacity="0.9" transform="translate(1349.9752197265625 146.7845001220703)" style="opacity:0.9;animation-play-state:paused"/>
<path id="path16" d="M 1079.763450937589 780.8976646134685 c 0 34.14055683716445 -8.35354050271045 9.806330155355747 -18.159870658066197 9.806330155355747 S 1043.4437096214565 815.0382214506329 1043.4437096214565 780.8976646134685 s 8.35354050271045 -9.806330155355747 18.159870658066197 -9.806330155355747 S 1079.763450937589 746.757107776304 1079.763450937589 780.8976646134685 z" fill="none" stroke="none" style="animation-play-state:paused"/>


<circle cx="0" cy="0" r="6.816206739327352" fill="#e0ff77" opacity="0.9" transform="translate(1078.260009765625 764.8441772460938)" style="opacity:0.9;animation-play-state:paused"/>
<path id="path17" d="M 1159.5351160939042 292.26752954494174 c 0 33.17968113980047 -8.11843261931288 9.530333944410774 -17.648766563723655 9.530333944410774 S 1124.2375829664568 325.44721068474223 1124.2375829664568 292.26752954494174 s 8.11843261931288 -9.530333944410774 17.648766563723655 -9.530333944410774 S 1159.5351160939042 259.08784840514124 1159.5351160939042 292.26752954494174 z" fill="none" stroke="none" style="animation-play-state:paused"/>


<circle cx="0" cy="0" r="5.634191118123678" fill="#9df871" opacity="0.9" transform="translate(1124.3970947265625 285.2239990234375)" style="opacity:0.9;animation-play-state:paused"/>
<path id="path18" d="M 576.7816442428247 339.1426800471338 c 0 19.281688353633967 -4.717859916314694 5.538357293065076 -10.25621720937977 5.538357293065076 S 556.2692098240651 358.4243684007678 556.2692098240651 339.1426800471338 s 4.717859916314694 -5.538357293065076 10.25621720937977 -5.538357293065076 S 576.7816442428247 319.86099169349984 576.7816442428247 339.1426800471338 z" fill="none" stroke="none" style="animation-play-state:paused"/>


<circle cx="0" cy="0" r="4.687446517874348" fill="#ff708e" opacity="0.9" transform="translate(565.1278076171875 344.95233154296875)" style="opacity:0.9;animation-play-state:paused"/>
<path id="path19" d="M 205.5300237911219 191.74510800120683 c 0 31.57519107662141 -7.72584462513077 9.069469777327427 -16.795314402458196 9.069469777327427 S 171.9393949862055 223.32029907782825 171.9393949862055 191.74510800120683 s 7.72584462513077 -9.069469777327427 16.795314402458196 -9.069469777327427 S 205.5300237911219 160.1699169245854 205.5300237911219 191.74510800120683 z" fill="none" stroke="none" style="animation-play-state:paused"/>


<circle cx="0" cy="0" r="6.786320396907373" fill="#51cacc" opacity="0.9" transform="translate(172.54139709472656 203.29893493652344)" style="opacity:0.9;animation-play-state:paused"/>
<path id="path20" d="M 112.54776439709222 283.5720523229716 c 0 32.599810441930856 -7.976549363451166 9.363775339703544 -17.34032470315471 9.363775339703544 S 77.86711499078281 316.17186276490247 77.86711499078281 283.5720523229716 s 7.976549363451166 -9.363775339703544 17.34032470315471 -9.363775339703544 S 112.54776439709222 250.97224188104076 112.54776439709222 283.5720523229716 z" fill="none" stroke="none" style="animation-play-state:paused"/>


<circle cx="0" cy="0" r="4.3675029830794525" fill="#de9dd6" opacity="0.9" transform="translate(95.18870544433594 274.20819091796875)" style="opacity:0.9;animation-play-state:paused"/>
<path id="path21" d="M 267.11133330073443 68.76439627555263 c 0 24.90640726875704 -6.094120927461828 7.153968045281278 -13.248088972743107 7.153968045281278 S 240.61515535524822 93.67080354430966 240.61515535524822 68.76439627555263 s 6.094120927461828 -7.153968045281278 13.248088972743107 -7.153968045281278 S 267.11133330073443 43.85798900679559 267.11133330073443 68.76439627555263 z" fill="none" stroke="none" style="animation-play-state:paused"/>


<circle cx="0" cy="0" r="7.431019193438153" fill="#e0ff77" opacity="0.9" transform="translate(245.7384490966797 80.87237548828125)" style="opacity:0.9;animation-play-state:paused"/>
<path id="path22" d="M 364.718185685931 838.8721767821285 c 0 35.28783189218566 -8.63425673957734 10.135866607329923 -18.770123346907262 10.135866607329923 S 327.1779389921165 874.1600086743141 327.1779389921165 838.8721767821285 s 8.63425673957734 -10.135866607329923 18.770123346907262 -10.135866607329923 S 364.718185685931 803.5843448899428 364.718185685931 838.8721767821285 z" fill="none" stroke="none" style="animation-play-state:paused"/>


<circle cx="0" cy="0" r="6.698624835165504" fill="#de9dd6" opacity="0.9" transform="translate(327.4646911621094 829.53662109375)" style="opacity:0.9;animation-play-state:paused"/>
<path id="path23" d="M 314.45265096320725 668.9104700155508 c 0 31.621328062789573 -7.737133462171915 9.082721890375728 -16.819855352547645 9.082721890375728 S 280.812940258112 700.5317980783403 280.812940258112 668.9104700155508 s 7.737133462171915 -9.082721890375728 16.819855352547645 -9.082721890375728 S 314.45265096320725 637.2891419527613 314.45265096320725 668.9104700155508 z" fill="none" stroke="none" style="animation-play-state:paused"/>


<circle cx="0" cy="0" r="7.661016364231836" fill="#9df871" opacity="0.9" transform="translate(285.684326171875 652.440673828125)" style="opacity:0.9;animation-play-state:paused"/>
<path id="path24" d="M 470.0221051069435 810.3233056823616 c 0 28.934586562077573 -7.079739265189192 8.310998267830792 -15.390737533019985 8.310998267830792 S 439.2406300409035 839.2578922444392 439.2406300409035 810.3233056823616 s 7.079739265189192 -8.310998267830792 15.390737533019985 -8.310998267830792 S 470.0221051069435 781.388719120284 470.0221051069435 810.3233056823616 z" fill="none" stroke="none" style="animation-play-state:paused"/>


<circle cx="0" cy="0" r="5.4053743707902875" fill="#9df871" opacity="0.9" transform="translate(446.4483642578125 797.303955078125)" style="opacity:0.9;animation-play-state:paused"/>
<path id="path25" d="M 1475.6232579089117 798.1709955773963 c 0 22.90491911131015 -5.604395101703546 6.579072510695468 -12.183467612399015 6.579072510695468 S 1451.2563226841137 821.0759146887065 1451.2563226841137 798.1709955773963 s 5.604395101703546 -6.579072510695468 12.183467612399015 -6.579072510695468 S 1475.6232579089117 775.2660764660861 1475.6232579089117 798.1709955773963 z" fill="none" stroke="none" style="animation-play-state:paused"/>


<circle cx="0" cy="0" r="4.896192049625208" fill="#e0ff77" opacity="0.9" transform="translate(1467.8768310546875 789.5916748046875)" style="opacity:0.9;animation-play-state:paused"/>
<path id="path26" d="M 1379.9789561316502 639.3666596573752 c 0 30.148917809942386 -7.376862868390158 8.659795541153665 -16.036658409543822 8.659795541153665 S 1347.9056393125625 669.5155774673176 1347.9056393125625 639.3666596573752 s 7.376862868390158 -8.659795541153665 16.036658409543822 -8.659795541153665 S 1379.9789561316502 609.2177418474328 1379.9789561316502 639.3666596573752 z" fill="none" stroke="none" style="animation-play-state:paused"/>


<circle cx="0" cy="0" r="4.379001006312804" fill="#9df871" opacity="0.9" transform="translate(1365.4664306640625 648.2374877929688)" style="opacity:0.9;animation-play-state:paused"/>
<path id="path27" d="M 1226.2139576346115 419.09178938921815 c 0 37.234138504533874 -9.110480697917863 10.694912123642709 -19.805392821560574 10.694912123642709 S 1186.6031719914902 456.325927893752 1186.6031719914902 419.09178938921815 s 9.110480697917863 -10.694912123642709 19.805392821560574 -10.694912123642709 S 1226.2139576346115 381.8576508846843 1226.2139576346115 419.09178938921815 z" fill="none" stroke="none" style="animation-play-state:paused"/>


<circle cx="0" cy="0" r="5.248587652249097" fill="#e0ff77" opacity="0.9" transform="translate(1215.6318359375 403.4721374511719)" style="opacity:0.9;animation-play-state:paused"/>
<path id="path28" d="M 306.60292673723575 528.8353176318877 c 0 29.58936394701402 -7.239950752992792 8.499072623078495 -15.739023376071287 8.499072623078495 S 275.1248799850931 558.4246815789018 275.1248799850931 528.8353176318877 s 7.239950752992792 -8.499072623078495 15.739023376071287 -8.499072623078495 S 306.60292673723575 499.2459536848737 306.60292673723575 528.8353176318877 z" fill="none" stroke="none" style="animation-play-state:paused"/>


<circle cx="0" cy="0" r="7.644138609478373" fill="#51cacc" opacity="0.9" transform="translate(306.4095458984375 535.9918212890625)" style="opacity:0.9;animation-play-state:paused"/>
<path id="path29" d="M 796.6058939226615 390.4743826926756 c 0 20.054633792557222 -4.906984864136341 5.760373536160053 -10.667358400296393 5.760373536160053 S 775.2711771220687 410.52901648523283 775.2711771220687 390.4743826926756 s 4.906984864136341 -5.760373536160053 10.667358400296393 -5.760373536160053 S 796.6058939226615 370.41974890011835 796.6058939226615 390.4743826926756 z" fill="none" stroke="none" style="animation-play-state:paused"/>


<circle cx="0" cy="0" r="6.91693021610132" fill="#e0ff77" opacity="0.9" transform="translate(782.3375244140625 397.7669982910156)" style="opacity:0.9;animation-play-state:paused"/>
<path id="path30" d="M 1115.079007552834 940.913426283418 c 0 34.038679771701176 -8.32861313562901 9.777067593999273 -18.105680729628283 9.777067593999273 S 1078.8676460935772 974.9521060551191 1078.8676460935772 940.913426283418 s 8.32861313562901 -9.777067593999273 18.105680729628283 -9.777067593999273 S 1115.079007552834 906.8747465117168 1115.079007552834 940.913426283418 z" fill="none" stroke="none" style="animation-play-state:paused"/>


<circle cx="0" cy="0" r="6.989863026041403" fill="#9df871" opacity="0.9" transform="translate(1092.5089111328125 952.1610107421875)" style="opacity:0.9;animation-play-state:paused"/>
<path id="path31" d="M 348.37667404941305 504.81963371052154 c 0 25.40161485135023 -6.2152887402239925 7.296208521132514 -13.511497261356507 7.296208521132514 S 321.35367952670003 530.2212485618718 321.35367952670003 504.81963371052154 s 6.2152887402239925 -7.296208521132514 13.511497261356507 -7.296208521132514 S 348.37667404941305 479.4180188591713 348.37667404941305 504.81963371052154 z" fill="none" stroke="none" style="animation-play-state:paused"/>


<circle cx="0" cy="0" r="5.697783452828069" fill="#ff708e" opacity="0.9" transform="translate(342.3649597167969 493.11883544921875)" style="opacity:0.9;animation-play-state:paused"/>
<path id="path32" d="M 1146.2614789089664 615.6021925851632 c 0 29.293310905269337 -7.167512242778667 8.414036111088 -15.581548353866667 8.414036111088 S 1115.0983822012329 644.8955034904325 1115.0983822012329 615.6021925851632 s 7.167512242778667 -8.414036111088 15.581548353866667 -8.414036111088 S 1146.2614789089664 586.3088816798938 1146.2614789089664 615.6021925851632 z" fill="none" stroke="none" style="animation-play-state:paused"/>


<circle cx="0" cy="0" r="6.622950594580701" fill="#51cacc" opacity="0.9" transform="translate(1116.124755859375 602.6219482421875)" style="opacity:0.9;animation-play-state:paused"/>
<path id="path33" d="M 112.9877642661409 76.05110681207533 c 0 31.336110715797048 -7.667346238971617 9.00079775879277 -16.668143997764385 9.00079775879277 S 79.65147627061212 107.38721752787238 79.65147627061212 76.05110681207533 s 7.667346238971617 -9.00079775879277 16.668143997764385 -9.00079775879277 S 112.9877642661409 44.714996096278284 112.9877642661409 76.05110681207533 z" fill="none" stroke="none" style="animation-play-state:paused"/>


<circle cx="0" cy="0" r="6.260902442164877" fill="#51cacc" opacity="0.9" transform="translate(102.02064514160156 87.50213623046875)" style="opacity:0.9;animation-play-state:paused"/>
<path id="path34" d="M 1566.0708128341796 256.0281395720969 c 0 33.51154347425126 -8.199632977742327 9.625656104306213 -17.825289082048542 9.625656104306213 S 1530.4202346700824 289.53968304634816 1530.4202346700824 256.0281395720969 s 8.199632977742327 -9.625656104306213 17.825289082048542 -9.625656104306213 S 1566.0708128341796 222.51659609784565 1566.0708128341796 256.0281395720969 z" fill="none" stroke="none" style="animation-play-state:paused"/>


<circle cx="0" cy="0" r="6.385757059824105" fill="#51cacc" opacity="0.9" transform="translate(1545.320068359375 245.729248046875)" style="opacity:0.9;animation-play-state:paused"/>
<path id="path35" d="M 1711.640820901403 859.5996277984877 c 0 21.279158280200754 -5.20660255792146 6.112098654951281 -11.318701212872742 6.112098654951281 S 1689.0034184756573 880.8787860786884 1689.0034184756573 859.5996277984877 s 5.20660255792146 -6.112098654951281 11.318701212872742 -6.112098654951281 S 1711.640820901403 838.320469518287 1711.640820901403 859.5996277984877 z" fill="none" stroke="none" style="animation-play-state:paused"/>


<circle cx="0" cy="0" r="6.956303726614347" fill="#de9dd6" opacity="0.9" transform="translate(1698.392822265625 866.1715698242188)" style="opacity:0.9;animation-play-state:paused"/>
<path id="path36" d="M 88.33941877057201 864.8087550545415 c 0 29.539192608859207 -7.2276747872740605 8.484661706799985 -15.712336494074046 8.484661706799985 S 56.914745782423914 894.3479476634008 56.914745782423914 864.8087550545415 s 7.2276747872740605 -8.484661706799985 15.712336494074046 -8.484661706799985 S 88.33941877057201 835.2695624456823 88.33941877057201 864.8087550545415 z" fill="none" stroke="none" style="animation-play-state:paused"/>


<circle cx="0" cy="0" r="7.767008046788111" fill="#ff708e" opacity="0.9" transform="translate(68.36136627197266 874.8170776367188)" style="opacity:0.9;animation-play-state:paused"/>
<path id="path37" d="M 390.8088948574049 760.1810312608205 c 0 20.566254451893396 -5.032168642484554 5.907328406394911 -10.939497048879465 5.907328406394911 S 368.929900759646 780.747285712714 368.929900759646 760.1810312608205 s 5.032168642484554 -5.907328406394911 10.939497048879465 -5.907328406394911 S 390.8088948574049 739.6147768089271 390.8088948574049 760.1810312608205 z" fill="none" stroke="none" style="animation-play-state:paused"/>


<circle cx="0" cy="0" r="4.656615395116897" fill="#e0ff77" opacity="0.9" transform="translate(373.4128112792969 750.385986328125)" style="opacity:0.9;animation-play-state:paused"/>
<path id="path38" d="M 135.99480443963594 553.3933291294629 c 0 34.536791115789796 -8.450491443225161 9.920142129003452 -18.370633572228613 9.920142129003452 S 99.25353729517872 587.9301202452527 99.25353729517872 553.3933291294629 s 8.450491443225161 -9.920142129003452 18.370633572228613 -9.920142129003452 S 135.99480443963594 518.8565380136731 135.99480443963594 553.3933291294629 z" fill="none" stroke="none" style="animation-play-state:paused"/>


<circle cx="0" cy="0" r="6.973417835472356" fill="#9df871" opacity="0.9" transform="translate(110.80223083496094 540.3534545898438)" style="opacity:0.9;animation-play-state:paused"/>
<path id="path39" d="M 289.9319826969115 788.2612467550288 c 0 35.52184673095248 -8.691515689488373 10.203083635486351 -18.894599324974724 10.203083635486351 S 252.14278404696208 823.7830934859812 252.14278404696208 788.2612467550288 s 8.691515689488373 -10.203083635486351 18.894599324974724 -10.203083635486351 S 289.9319826969115 752.7394000240763 289.9319826969115 788.2612467550288 z" fill="none" stroke="none" style="animation-play-state:paused"/>


<circle cx="0" cy="0" r="5.186106038877125" fill="#de9dd6" opacity="0.9" transform="translate(289.7890625 781.28564453125)" style="opacity:0.9;animation-play-state:paused"/></g></svg>