<?xml version="1.0" encoding="utf-8"?><svg xmlns="http://www.w3.org/2000/svg" xmlns:xlink="http://www.w3.org/1999/xlink" preserveAspectRatio="xMidYMid" viewBox="0 0 1718 969" style="z-index:1;margin-right:-2px;display:block;background-repeat-y:initial;background-repeat-x:initial;background-color:rgb(255, 255, 255);animation-play-state:paused"><g transform="translate(859,484.5) scale(1,1) translate(-859,-484.5)" style="transform:matrix(1, 0, 0, 1, 0, 0);animation-play-state:paused"><path id="path0" d="M 742.2653886922443 686.5966994734338 c 0 31.93086005330675 -7.812870013043139 9.171630015311512 -16.984500028354653 9.171630015311512 S 708.296388635535 718.5275595267406 708.296388635535 686.5966994734338 s 7.812870013043139 -9.171630015311512 16.984500028354653 -9.171630015311512 S 742.2653886922443 654.665839420127 742.2653886922443 686.5966994734338 z" fill="none" stroke="none" style="animation-play-state:paused"/>


<circle cx="0" cy="0" r="6.783834909111474" fill="#51cacc" opacity="0.9" transform="translate(741.1558837890625 672.480224609375)" style="opacity:0.9;animation-play-state:paused"/>
<path id="path1" d="M 921.9994409270053 4.56332899378951 c 0 36.270054726280485 -8.87458785855799 10.417994442655033 -19.29258230121302 10.417994442655033 S 883.4142763245793 40.833383720069996 883.4142763245793 4.56332899378951 s 8.87458785855799 -10.417994442655033 19.29258230121302 -10.417994442655033 S 921.9994409270053 -31.706725732490973 921.9994409270053 4.56332899378951 z" fill="none" stroke="none" style="animation-play-state:paused"/>


<circle cx="0" cy="0" r="4.163701845487192" fill="#9df871" opacity="0.9" transform="translate(914.0005493164062 -12.634861946105957)" style="opacity:0.9;animation-play-state:paused"/>
<path id="path2" d="M 488.183397617112 569.1854850763198 c 0 33.63239413534608 -8.229202820350636 9.660368528237704 -17.88957134858834 9.660368528237704 S 452.40425491993534 602.8178792116659 452.40425491993534 569.1854850763198 s 8.229202820350636 -9.660368528237704 17.88957134858834 -9.660368528237704 S 488.183397617112 535.5530909409737 488.183397617112 569.1854850763198 z" fill="none" stroke="none" style="animation-play-state:paused"/>


<circle cx="0" cy="0" r="6.9801375519235425" fill="#e0ff77" opacity="0.9" transform="translate(453.0268859863281 581.3663940429688)" style="opacity:0.9;animation-play-state:paused"/>
<path id="path3" d="M 745.9261458948444 211.3145744642057 c 0 37.30410188357668 -9.127599397045357 10.715007987835856 -19.842607384881212 10.715007987835856 S 706.2409311250818 248.61867634778235 706.2409311250818 211.3145744642057 s 9.127599397045357 -10.715007987835856 19.842607384881212 -10.715007987835856 S 745.9261458948444 174.01047258062903 745.9261458948444 211.3145744642057 z" fill="none" stroke="none" style="animation-play-state:paused"/>


<circle cx="0" cy="0" r="5.388387710842849" fill="#51cacc" opacity="0.9" transform="translate(706.26318359375 214.33567810058594)" style="opacity:0.9;animation-play-state:paused"/>
<path id="path4" d="M 752.3510930246589 553.8466095980742 c 0 33.62627146817104 -8.227704720935465 9.658609889793809 -17.886314610729276 9.658609889793809 S 716.5784638032003 587.4728810662452 716.5784638032003 553.8466095980742 s 8.227704720935465 -9.658609889793809 17.886314610729276 -9.658609889793809 S 752.3510930246589 520.2203381299032 752.3510930246589 553.8466095980742 z" fill="none" stroke="none" style="animation-play-state:paused"/>


<circle cx="0" cy="0" r="5.713362976485647" fill="#de9dd6" opacity="0.9" transform="translate(726.8158569335938 567.3701171875)" style="opacity:0.9;animation-play-state:paused"/>
<path id="path5" d="M 731.7444971576668 432.46097708095994 c 0 20.330975230181767 -4.974600322278517 5.839748204413913 -10.81434852669243 5.839748204413913 S 710.1158001042819 452.7919523111417 710.1158001042819 432.46097708095994 s 4.974600322278517 -5.839748204413913 10.81434852669243 -5.839748204413913 S 731.7444971576668 412.13000185077817 731.7444971576668 432.46097708095994 z" fill="none" stroke="none" style="animation-play-state:paused"/>


<circle cx="0" cy="0" r="4.416661970023733" fill="#e0ff77" opacity="0.9" transform="translate(711.1265258789062 442.2916259765625)" style="opacity:0.9;animation-play-state:paused"/>
<path id="path6" d="M 917.9869964762024 951.7575837070265 c 0 20.847506317018365 -5.100985588206621 5.988113516590381 -11.089099104797002 5.988113516590381 S 895.8087982666084 972.6050900240448 895.8087982666084 951.7575837070265 s 5.100985588206621 -5.988113516590381 11.089099104797002 -5.988113516590381 S 917.9869964762024 930.9100773900082 917.9869964762024 951.7575837070265 z" fill="none" stroke="none" style="animation-play-state:paused"/>


<circle cx="0" cy="0" r="6.088152365962777" fill="#9df871" opacity="0.9" transform="translate(910.364990234375 944.3803100585938)" style="opacity:0.9;animation-play-state:paused"/>
<path id="path7" d="M 1050.871880449467 825.5631105464541 c 0 23.66232946662421 -5.789718912046349 6.796626548923976 -12.586345460970325 6.796626548923976 S 1025.6991895275264 849.2254400130784 1025.6991895275264 825.5631105464541 s 5.789718912046349 -6.796626548923976 12.586345460970325 -6.796626548923976 S 1050.871880449467 801.9007810798299 1050.871880449467 825.5631105464541 z" fill="none" stroke="none" style="animation-play-state:paused"/>


<circle cx="0" cy="0" r="7.076199780865475" fill="#9df871" opacity="0.9" transform="translate(1030.1795654296875 813.7667236328125)" style="opacity:0.9;animation-play-state:paused"/>
<path id="path8" d="M 1097.7493142631367 35.609390378402715 c 0 19.28397880213191 -4.718420345202487 5.539015187846399 -10.257435533048886 5.539015187846399 S 1077.234443197039 54.89336918053462 1077.234443197039 35.609390378402715 s 4.718420345202487 -5.539015187846399 10.257435533048886 -5.539015187846399 S 1097.7493142631367 16.325411576270806 1097.7493142631367 35.609390378402715 z" fill="none" stroke="none" style="animation-play-state:paused"/>


<circle cx="0" cy="0" r="7.0460218024274095" fill="#de9dd6" opacity="0.9" transform="translate(1096.185302734375 45.722801208496094)" style="opacity:0.9;animation-play-state:paused"/>
<path id="path9" d="M 781.2065060118067 169.04476889648424 c 0 33.36475500042997 -8.163716649041376 9.583493457570313 -17.74721010661169 9.583493457570313 S 745.7120857985834 202.4095238969142 745.7120857985834 169.04476889648424 s 8.163716649041376 -9.583493457570313 17.74721010661169 -9.583493457570313 S 781.2065060118067 135.68001389605428 781.2065060118067 169.04476889648424 z" fill="none" stroke="none" style="animation-play-state:paused"/>


<circle cx="0" cy="0" r="7.882843634297312" fill="#de9dd6" opacity="0.9" transform="translate(751.2461547851562 151.88763427734375)" style="opacity:0.9;animation-play-state:paused"/>
<path id="path10" d="M 546.200319568502 900.0279512403652 c 0 37.25286834280407 -9.115063530686102 10.700291970805425 -19.815355501491528 10.700291970805425 S 506.5696085655189 937.2808195831692 506.5696085655189 900.0279512403652 s 9.115063530686102 -10.700291970805425 19.815355501491528 -10.700291970805425 S 546.200319568502 862.7750828975611 546.200319568502 900.0279512403652 z" fill="none" stroke="none" style="animation-play-state:paused"/>


<circle cx="0" cy="0" r="7.134661055077273" fill="#ff708e" opacity="0.9" transform="translate(545.6978149414062 888.0047607421875)" style="opacity:0.9;animation-play-state:paused"/>
<path id="path11" d="M 438.6982387387802 67.95375789588692 c 0 24.848731710329538 -6.080008822740206 7.137401661477634 -13.21741048421784 7.137401661477634 S 412.2634177703445 92.80248960621645 412.2634177703445 67.95375789588692 s 6.080008822740206 -7.137401661477634 13.21741048421784 -7.137401661477634 S 438.6982387387802 43.105026185557385 438.6982387387802 67.95375789588692 z" fill="none" stroke="none" style="animation-play-state:paused"/>


<circle cx="0" cy="0" r="5.619382137267032" fill="#ff708e" opacity="0.9" transform="translate(438.0854187011719 77.86376190185547)" style="opacity:0.9;animation-play-state:paused"/>
<path id="path12" d="M 522.3448583678396 496.1025149838525 c 0 36.514991307727776 -8.93451914976318 10.488348567113299 -19.42286771687648 10.488348567113299 S 483.49912293408664 532.6175062915803 483.49912293408664 496.1025149838525 s 8.93451914976318 -10.488348567113299 19.42286771687648 -10.488348567113299 S 522.3448583678396 459.5875236761247 522.3448583678396 496.1025149838525 z" fill="none" stroke="none" style="animation-play-state:paused"/>


<circle cx="0" cy="0" r="6.4474453985301725" fill="#de9dd6" opacity="0.9" transform="translate(483.8548278808594 506.4992980957031)" style="opacity:0.9;animation-play-state:paused"/>
<path id="path13" d="M 637.7814541067314 279.20499005463756 c 0 19.96358407847303 -4.884706742605102 5.734220958710339 -10.618927701315442 5.734220958710339 S 616.5435987041005 299.1685741331106 616.5435987041005 279.20499005463756 s 4.884706742605102 -5.734220958710339 10.618927701315442 -5.734220958710339 S 637.7814541067314 259.2414059761645 637.7814541067314 279.20499005463756 z" fill="none" stroke="none" style="animation-play-state:paused"/>


<circle cx="0" cy="0" r="5.716606309188133" fill="#ff708e" opacity="0.9" transform="translate(632.74365234375 270.2784118652344)" style="opacity:0.9;animation-play-state:paused"/>
<path id="path14" d="M 1228.324972517711 511.1999230720584 c 0 19.67509201418083 -4.814118258788926 5.651356216839175 -10.4654744756281 5.651356216839175 S 1207.394023566455 530.8750150862393 1207.394023566455 511.1999230720584 s 4.814118258788926 -5.651356216839175 10.4654744756281 -5.651356216839175 S 1228.324972517711 491.5248310578776 1228.324972517711 511.1999230720584 z" fill="none" stroke="none" style="animation-play-state:paused"/>


<circle cx="0" cy="0" r="6.1448604858075075" fill="#51cacc" opacity="0.9" transform="translate(1215.500244140625 517.5711059570312)" style="opacity:0.9;animation-play-state:paused"/>
<path id="path15" d="M 153.05016235417668 943.5817135611835 c 0 35.66427837208195 -8.726365984658349 10.243994851555454 -18.970360836213803 10.243994851555454 S 115.10944068174906 979.2459919332655 115.10944068174906 943.5817135611835 s 8.726365984658349 -10.243994851555454 18.970360836213803 -10.243994851555454 S 153.05016235417668 907.9174351891015 153.05016235417668 943.5817135611835 z" fill="none" stroke="none" style="animation-play-state:paused"/>


<circle cx="0" cy="0" r="4.0651016416966845" fill="#de9dd6" opacity="0.9" transform="translate(134.06723022460938 953.8258666992188)" style="opacity:0.9;animation-play-state:paused"/>
<path id="path16" d="M 1553.9321679142524 288.0349457866398 c 0 27.976020264884163 -6.845196447790805 8.035665395232686 -14.880861843023489 8.035665395232686 S 1524.1704442282055 316.01096605152395 1524.1704442282055 288.0349457866398 s 6.845196447790805 -8.035665395232686 14.880861843023489 -8.035665395232686 S 1553.9321679142524 260.05892552175567 1553.9321679142524 288.0349457866398 z" fill="none" stroke="none" style="animation-play-state:paused"/>


<circle cx="0" cy="0" r="6.72646665437399" fill="#de9dd6" opacity="0.9" transform="translate(1524.1722412109375 288.5169982910156)" style="opacity:0.9;animation-play-state:paused"/>
<path id="path17" d="M 667.2856532969016 498.6715977797453 c 0 33.43821482776039 -8.181690862111584 9.604593620739687 -17.78628448285127 9.604593620739687 S 631.7130843311992 532.1098126075057 631.7130843311992 498.6715977797453 s 8.181690862111584 -9.604593620739687 17.78628448285127 -9.604593620739687 S 667.2856532969016 465.23338295198494 667.2856532969016 498.6715977797453 z" fill="none" stroke="none" style="animation-play-state:paused"/>


<circle cx="0" cy="0" r="7.595234013125623" fill="#de9dd6" opacity="0.9" transform="translate(664.4036865234375 481.032958984375)" style="opacity:0.9;animation-play-state:paused"/>
<path id="path18" d="M 468.0312672756201 847.9940892524332 c 0 25.251156253235965 -6.178474402387522 7.252991689759266 -13.431466092146788 7.252991689759266 S 441.1683350913266 873.2452455056692 441.1683350913266 847.9940892524332 s 6.178474402387522 -7.252991689759266 13.431466092146788 -7.252991689759266 S 468.0312672756201 822.7429329991973 468.0312672756201 847.9940892524332 z" fill="none" stroke="none" style="animation-play-state:paused"/>


<circle cx="0" cy="0" r="7.823483942942307" fill="#e0ff77" opacity="0.9" transform="translate(467.7242431640625 840.1577758789062)" style="opacity:0.9;animation-play-state:paused"/>
<path id="path19" d="M 897.3381951581052 521.9549327928904 c 0 26.31067518001703 -6.437718395110549 7.55732159426021 -13.99503998937076 7.55732159426021 S 869.3481151793637 548.2656079729074 869.3481151793637 521.9549327928904 s 6.437718395110549 -7.55732159426021 13.99503998937076 -7.55732159426021 S 897.3381951581052 495.6442576128734 897.3381951581052 521.9549327928904 z" fill="none" stroke="none" style="animation-play-state:paused"/>


<circle cx="0" cy="0" r="7.876766127462873" fill="#ff708e" opacity="0.9" transform="translate(897.1795043945312 515.803466796875)" style="opacity:0.9;animation-play-state:paused"/>
<path id="path20" d="M 1707.922721420356 583.931256715329 c 0 21.771272139428405 -5.327013395817588 6.2534505081336915 -11.58046390395128 6.2534505081336915 S 1684.7617936124534 605.7025288547575 1684.7617936124534 583.931256715329 s 5.327013395817588 -6.2534505081336915 11.58046390395128 -6.2534505081336915 S 1707.922721420356 562.1599845759006 1707.922721420356 583.931256715329 z" fill="none" stroke="none" style="animation-play-state:paused"/>


<circle cx="0" cy="0" r="7.783846112291673" fill="#e0ff77" opacity="0.9" transform="translate(1686.0224609375 573.070556640625)" style="opacity:0.9;animation-play-state:paused"/>
<path id="path21" d="M 1013.1073564123528 140.53836250730976 c 0 36.54537992980896 -8.94195466367666 10.497077213881296 -19.439031877557955 10.497077213881296 S 974.229292657237 177.0837424371187 974.229292657237 140.53836250730976 s 8.94195466367666 -10.497077213881296 19.439031877557955 -10.497077213881296 S 1013.1073564123528 103.9929825775008 1013.1073564123528 140.53836250730976 z" fill="none" stroke="none" style="animation-play-state:paused"/>


<circle cx="0" cy="0" r="7.99565379137191" fill="#9df871" opacity="0.9" transform="translate(975.2039184570312 155.47813415527344)" style="opacity:0.9;animation-play-state:paused"/>
<path id="path22" d="M 1521.7659804969537 289.76520426131 c 0 29.434976616297938 -7.202175129519707 8.454727325957919 -15.656902455477626 8.454727325957919 S 1490.4521755859985 319.2001808776079 1490.4521755859985 289.76520426131 s 7.202175129519707 -8.454727325957919 15.656902455477626 -8.454727325957919 S 1521.7659804969537 260.33022764501203 1521.7659804969537 289.76520426131 z" fill="none" stroke="none" style="animation-play-state:paused"/>


<circle cx="0" cy="0" r="4.467755167944687" fill="#51cacc" opacity="0.9" transform="translate(1507.422607421875 298.381591796875)" style="opacity:0.9;animation-play-state:paused"/>
<path id="path23" d="M 564.8154061042213 208.70369710558876 c 0 30.719742714112936 -7.516532791751036 8.823755885968609 -16.340288677719645 8.823755885968609 S 532.1348287487821 239.42343981970168 532.1348287487821 208.70369710558876 s 7.516532791751036 -8.823755885968609 16.340288677719645 -8.823755885968609 S 564.8154061042213 177.98395439147583 564.8154061042213 208.70369710558876 z" fill="none" stroke="none" style="animation-play-state:paused"/>


<circle cx="0" cy="0" r="5.85692737204888" fill="#9df871" opacity="0.9" transform="translate(545.1521606445312 218.45372009277344)" style="opacity:0.9;animation-play-state:paused"/>
<path id="path24" d="M 984.7312394561226 494.798376606988 c 0 32.084041383874315 -7.850350551373501 9.21562890813411 -17.065979459507613 9.21562890813411 S 950.5992805371073 526.8824179908623 950.5992805371073 494.798376606988 s 7.850350551373501 -9.21562890813411 17.065979459507613 -9.21562890813411 S 984.7312394561226 462.71433522311366 984.7312394561226 494.798376606988 z" fill="none" stroke="none" style="animation-play-state:paused"/>


<circle cx="0" cy="0" r="5.462036003818522" fill="#ff708e" opacity="0.9" transform="translate(957.4679565429688 510.18084716796875)" style="opacity:0.9;animation-play-state:paused"/>
<path id="path25" d="M 1258.3820481582222 442.0756184104265 c 0 31.072674054308965 -7.602888332437299 8.92512978155683 -16.52801811399413 8.92512978155683 S 1225.3260119302338 473.14829246473545 1225.3260119302338 442.0756184104265 s 7.602888332437299 -8.92512978155683 16.52801811399413 -8.92512978155683 S 1258.3820481582222 411.00294435611755 1258.3820481582222 442.0756184104265 z" fill="none" stroke="none" style="animation-play-state:paused"/>


<circle cx="0" cy="0" r="6.711303155037453" fill="#51cacc" opacity="0.9" transform="translate(1258.381103515625 441.6094055175781)" style="opacity:0.9;animation-play-state:paused"/>
<path id="path26" d="M 145.8023993954849 822.816312116897 c 0 33.97494519315875 -8.313018504709055 9.75876085335411 -18.071779358063164 9.75876085335411 S 109.65884067935858 856.7912573100558 109.65884067935858 822.816312116897 s 8.313018504709055 -9.75876085335411 18.071779358063164 -9.75876085335411 S 145.8023993954849 788.8413669237383 145.8023993954849 822.816312116897 z" fill="none" stroke="none" style="animation-play-state:paused"/>


<circle cx="0" cy="0" r="5.0412906462145815" fill="#ff708e" opacity="0.9" transform="translate(109.76085662841797 828.6802368164062)" style="opacity:0.9;animation-play-state:paused"/>
<path id="path27" d="M 554.285089829962 889.7216485696205 c 0 35.11539477782199 -8.592064679679847 10.08633679788504 -18.678401477564886 10.08633679788504 S 516.9282868748322 924.8370433474424 516.9282868748322 889.7216485696205 s 8.592064679679847 -10.08633679788504 18.678401477564886 -10.08633679788504 S 554.285089829962 854.6062537917985 554.285089829962 889.7216485696205 z" fill="none" stroke="none" style="animation-play-state:paused"/>


<circle cx="0" cy="0" r="6.051507824655307" fill="#ff708e" opacity="0.9" transform="translate(552.0179443359375 871.8646240234375)" style="opacity:0.9;animation-play-state:paused"/>
<path id="path28" d="M 1403.724411606145 401.8074901064138 c 0 37.25870459315217 -9.116491549388297 10.701968340586262 -19.81845988997456 10.701968340586262 S 1364.087491826196 439.066194699566 1364.087491826196 401.8074901064138 s 9.116491549388297 -10.701968340586262 19.81845988997456 -10.701968340586262 S 1403.724411606145 364.54878551326163 1403.724411606145 401.8074901064138 z" fill="none" stroke="none" style="animation-play-state:paused"/>


<circle cx="0" cy="0" r="4.233579221343394" fill="#ff708e" opacity="0.9" transform="translate(1403.5789794921875 409.02679443359375)" style="opacity:0.9;animation-play-state:paused"/>
<path id="path29" d="M 1580.7975031039805 794.9972014949097 c 0 19.065428142572472 -4.664945183820923 5.4762399983984755 -10.141185182219399 5.4762399983984755 S 1560.5151327395415 814.0626296374822 1560.5151327395415 794.9972014949097 s 4.664945183820923 -5.4762399983984755 10.141185182219399 -5.4762399983984755 S 1580.7975031039805 775.9317733523372 1580.7975031039805 794.9972014949097 z" fill="none" stroke="none" style="animation-play-state:paused"/>


<circle cx="0" cy="0" r="7.3441165753740245" fill="#de9dd6" opacity="0.9" transform="translate(1580.690673828125 799.3193359375)" style="opacity:0.9;animation-play-state:paused"/>
<path id="path30" d="M 379.1050918344474 326.62608501441684 c 0 32.72823910063947 -8.007973396964976 9.400664422524104 -17.40863781948908 9.400664422524104 S 344.2878161954693 359.35432411505633 344.2878161954693 326.62608501441684 s 8.007973396964976 -9.400664422524104 17.40863781948908 -9.400664422524104 S 379.1050918344474 293.89784591377736 379.1050918344474 326.62608501441684 z" fill="none" stroke="none" style="animation-play-state:paused"/>


<circle cx="0" cy="0" r="4.954444660857762" fill="#e0ff77" opacity="0.9" transform="translate(377.3105773925781 310.471923828125)" style="opacity:0.9;animation-play-state:paused"/>
<path id="path31" d="M 1324.6313965659413 942.6125421604214 c 0 34.33807515902002 -8.40186945380277 9.863064141420644 -18.264933595223415 9.863064141420644 S 1288.1015293754942 976.9506173194414 1288.1015293754942 942.6125421604214 s 8.40186945380277 -9.863064141420644 18.264933595223415 -9.863064141420644 S 1324.6313965659413 908.2744670014014 1324.6313965659413 942.6125421604214 z" fill="none" stroke="none" style="animation-play-state:paused"/>


<circle cx="0" cy="0" r="4.833303001492211" fill="#ff708e" opacity="0.9" transform="translate(1322.9453125 926.0542602539062)" style="opacity:0.9;animation-play-state:paused"/>
<path id="path32" d="M 329.02472178774906 548.9524237517135 c 0 26.17314754389716 -6.404068016059942 7.517818975374715 -13.921886991434658 7.517818975374715 S 301.1809478048798 575.1255712956106 301.1809478048798 548.9524237517135 s 6.404068016059942 -7.517818975374715 13.921886991434658 -7.517818975374715 S 329.02472178774906 522.7792762078163 329.02472178774906 548.9524237517135 z" fill="none" stroke="none" style="animation-play-state:paused"/>


<circle cx="0" cy="0" r="7.534835722538672" fill="#e0ff77" opacity="0.9" transform="translate(311.3841857910156 540.1244506835938)" style="opacity:0.9;animation-play-state:paused"/>
<path id="path33" d="M 1275.3573696980986 796.6154110103131 c 0 37.23193490804483 -9.109941520053521 10.694279175715003 -19.804220695768525 10.694279175715003 S 1235.7489283065618 833.847345918358 1235.7489283065618 796.6154110103131 s 9.109941520053521 -10.694279175715003 19.804220695768525 -10.694279175715003 S 1275.3573696980986 759.3834761022682 1275.3573696980986 796.6154110103131 z" fill="none" stroke="none" style="animation-play-state:paused"/>


<circle cx="0" cy="0" r="4.551423951528082" fill="#de9dd6" opacity="0.9" transform="translate(1269.5513916015625 815.9706420898438)" style="opacity:0.9;animation-play-state:paused"/>
<path id="path34" d="M 1534.768784420355 525.133756939574 c 0 18.899159001004897 -4.624262308756517 5.428481840714173 -10.052744149470689 5.428481840714173 S 1514.6632961214134 544.032915940579 1514.6632961214134 525.133756939574 s 4.624262308756517 -5.428481840714173 10.052744149470689 -5.428481840714173 S 1534.768784420355 506.23459793856915 1534.768784420355 525.133756939574 z" fill="none" stroke="none" style="animation-play-state:paused"/>


<circle cx="0" cy="0" r="4.690653032917265" fill="#e0ff77" opacity="0.9" transform="translate(1514.703125 527.8876953125)" style="opacity:0.9;animation-play-state:paused"/>
<path id="path35" d="M 100.08166479971439 837.6823762488102 c 0 23.909023814641195 -5.8500802950717805 6.867485563779917 -12.717565858851698 6.867485563779917 S 74.64653308201099 861.5914000634514 74.64653308201099 837.6823762488102 s 5.8500802950717805 -6.867485563779917 12.717565858851698 -6.867485563779917 S 100.08166479971439 813.773352434169 100.08166479971439 837.6823762488102 z" fill="none" stroke="none" style="animation-play-state:paused"/>


<circle cx="0" cy="0" r="7.73791618580991" fill="#ff708e" opacity="0.9" transform="translate(91.47832489013672 829.1212768554688)" style="opacity:0.9;animation-play-state:paused"/>
<path id="path36" d="M 1166.7475686751377 623.06094336686 c 0 19.429860374014073 -4.754114772365145 5.580917341472127 -10.335032113837272 5.580917341472127 S 1146.077504447463 642.4908037408741 1146.077504447463 623.06094336686 s 4.754114772365145 -5.580917341472127 10.335032113837272 -5.580917341472127 S 1166.7475686751377 603.6310829928459 1166.7475686751377 623.06094336686 z" fill="none" stroke="none" style="animation-play-state:paused"/>


<circle cx="0" cy="0" r="7.134011022144542" fill="#ff708e" opacity="0.9" transform="translate(1146.1168212890625 620.25927734375)" style="opacity:0.9;animation-play-state:paused"/>
<path id="path37" d="M 902.1923571245919 37.57672949967864 c 0 36.493490777763526 -8.929258381793202 10.482172882974629 -19.41143126476783 10.482172882974629 S 863.3694945950562 74.07022027744216 863.3694945950562 37.57672949967864 s 8.929258381793202 -10.482172882974629 19.41143126476783 -10.482172882974629 S 902.1923571245919 1.0832387219151158 902.1923571245919 37.57672949967864 z" fill="none" stroke="none" style="animation-play-state:paused"/>


<circle cx="0" cy="0" r="6.688566882481227" fill="#e0ff77" opacity="0.9" transform="translate(880.3822021484375 48.48417282104492)" style="opacity:0.9;animation-play-state:paused"/>
<path id="path38" d="M 750.5882392919156 279.8139139248063 c 0 31.823567116461447 -7.786617485942694 9.140811831324033 -16.92742931726673 9.140811831324033 S 716.7333806573821 311.63748104126773 716.7333806573821 279.8139139248063 s 7.786617485942694 -9.140811831324033 16.92742931726673 -9.140811831324033 S 750.5882392919156 247.99034680834484 750.5882392919156 279.8139139248063 z" fill="none" stroke="none" style="animation-play-state:paused"/>


<circle cx="0" cy="0" r="6.964893928341978" fill="#e0ff77" opacity="0.9" transform="translate(734.3197021484375 288.9933166503906)" style="opacity:0.9;animation-play-state:paused"/>
<path id="path39" d="M 281.37008843404 783.6049636382434 c 0 24.256582722291654 -5.935121304390511 6.9673163138497305 -12.902437618240242 6.9673163138497305 S 255.5652131975595 807.861546360535 255.5652131975595 783.6049636382434 s 5.935121304390511 -6.9673163138497305 12.902437618240242 -6.9673163138497305 S 281.37008843404 759.3483809159517 281.37008843404 783.6049636382434 z" fill="none" stroke="none" style="animation-play-state:paused"/>


<circle cx="0" cy="0" r="4.406482582731376" fill="#51cacc" opacity="0.9" transform="translate(255.59483337402344 786.3746337890625)" style="opacity:0.9;animation-play-state:paused"/></g></svg>