<?xml version="1.0" encoding="utf-8"?><svg xmlns="http://www.w3.org/2000/svg" xmlns:xlink="http://www.w3.org/1999/xlink" preserveAspectRatio="xMidYMid" viewBox="0 0 1554 965" style="z-index:1;shape-rendering:crispedges;margin-right:-2px;display:block;background-repeat-y:initial;background-repeat-x:initial;background-color:rgb(255, 255, 255);animation-play-state:paused"><g transform="translate(777,482.5) scale(1,1) translate(-777,-482.5)" style="transform:matrix(1, 0, 0, 1, 0, 0);animation-play-state:paused"><path id="path0" d="M 1184.2100780547557 302.4290098043781 c 0 37.440754514168894 -9.16103567899877 10.754259275346385 -19.915294954345157 10.754259275346385 S 1144.3794881460653 339.86976431854697 1144.3794881460653 302.4290098043781 s 9.16103567899877 -10.754259275346385 19.915294954345157 -10.754259275346385 S 1184.2100780547557 264.9882552902092 1184.2100780547557 302.4290098043781 z" fill="none" stroke="none" style="animation-play-state:paused"/>


<circle cx="0" cy="0" r="2.309100610165849" fill="#9df871" opacity="0.9" transform="translate(1184.0098876953125 294.1073303222656)" style="opacity:0.9;animation-play-state:paused"/>
<path id="path1" d="M 1101.7747304351285 356.7740250969426 c 0 19.87942975200324 -4.864115790383771 5.71004897132008 -10.57416476170385 5.71004897132008 S 1080.626400911721 376.65345484894584 1080.626400911721 356.7740250969426 s 4.864115790383771 -5.71004897132008 10.57416476170385 -5.71004897132008 S 1101.7747304351285 336.8945953449393 1101.7747304351285 356.7740250969426 z" fill="none" stroke="none" style="animation-play-state:paused"/>


<circle cx="0" cy="0" r="2.3669797691577124" fill="#e0ff77" opacity="0.9" transform="translate(1094.6971435546875 363.9480895996094)" style="opacity:0.9;animation-play-state:paused"/>
<path id="path2" d="M 1059.7301867695335 675.9131814770687 c 0 21.220747540504888 -5.192310568421409 6.095321102059915 -11.287631670481325 6.095321102059915 S 1037.154923428571 697.1339290175737 1037.154923428571 675.9131814770687 s 5.192310568421409 -6.095321102059915 11.287631670481325 -6.095321102059915 S 1059.7301867695335 654.6924339365638 1059.7301867695335 675.9131814770687 z" fill="none" stroke="none" style="animation-play-state:paused"/>


<circle cx="0" cy="0" r="2.4496535295627835" fill="#51cacc" opacity="0.9" transform="translate(1037.1781005859375 673.6109008789062)" style="opacity:0.9;animation-play-state:paused"/>
<path id="path3" d="M 373.72906960480515 260.6573719602337 c 0 25.298329639734416 -6.190016826743527 7.266541492264141 -13.456558319007668 7.266541492264141 S 346.8159529667898 285.9557015999681 346.8159529667898 260.6573719602337 s 6.190016826743527 -7.266541492264141 13.456558319007668 -7.266541492264141 S 373.72906960480515 235.3590423204993 373.72906960480515 260.6573719602337 z" fill="none" stroke="none" style="animation-play-state:paused"/>


<circle cx="0" cy="0" r="2.4343691482536682" fill="#e0ff77" opacity="0.9" transform="translate(346.9126281738281 265.5154113769531)" style="opacity:0.9;animation-play-state:paused"/>
<path id="path4" d="M 842.6006483915106 26.68539664246363 c 0 32.070763906667 -7.847101806950434 9.211815164680946 -17.05891697163138 9.211815164680946 S 808.482814448248 58.75616054913063 808.482814448248 26.68539664246363 s 7.847101806950434 -9.211815164680946 17.05891697163138 -9.211815164680946 S 842.6006483915106 -5.385367264203367 842.6006483915106 26.68539664246363 z" fill="none" stroke="none" style="animation-play-state:paused"/>


<circle cx="0" cy="0" r="1.3672371455128145" fill="#ff708e" opacity="0.9" transform="translate(839.8033447265625 9.750988960266113)" style="opacity:0.9;animation-play-state:paused"/>
<path id="path5" d="M 527.2008865465505 858.6162348991518 c 0 30.82177473873216 -7.541498074370633 8.853062956869875 -16.39456103124051 8.853062956869875 S 494.41176448406947 889.438009637884 494.41176448406947 858.6162348991518 s 7.541498074370633 -8.853062956869875 16.39456103124051 -8.853062956869875 S 527.2008865465505 827.7944601604196 527.2008865465505 858.6162348991518 z" fill="none" stroke="none" style="animation-play-state:paused"/>


<circle cx="0" cy="0" r="1.86647744708163" fill="#51cacc" opacity="0.9" transform="translate(525.5859375 873.6884155273438)" style="opacity:0.9;animation-play-state:paused"/>
<path id="path6" d="M 1511.0935053003416 383.01510050982336 c 0 36.26993147095415 -8.874557700339842 10.417959039529382 -19.292516739869225 10.417959039529382 S 1472.5084718206033 419.2850319807775 1472.5084718206033 383.01510050982336 s 8.874557700339842 -10.417959039529382 19.292516739869225 -10.417959039529382 S 1511.0935053003416 346.7451690388692 1511.0935053003416 383.01510050982336 z" fill="none" stroke="none" style="animation-play-state:paused"/>


<circle cx="0" cy="0" r="1.7676630444800623" fill="#ff708e" opacity="0.9" transform="translate(1511.052001953125 387.0478515625)" style="opacity:0.9;animation-play-state:paused"/>
<path id="path7" d="M 1159.720221547136 521.3336217536158 c 0 26.503201520456148 -6.484825903941397 7.61262171332251 -14.097447617263906 7.61262171332251 S 1131.525326312608 547.836823274072 1131.525326312608 521.3336217536158 s 6.484825903941397 -7.61262171332251 14.097447617263906 -7.61262171332251 S 1159.720221547136 494.83042023315966 1159.720221547136 521.3336217536158 z" fill="none" stroke="none" style="animation-play-state:paused"/>


<circle cx="0" cy="0" r="1.5945081825607192" fill="#51cacc" opacity="0.9" transform="translate(1139.7564697265625 531.8566284179688)" style="opacity:0.9;animation-play-state:paused"/>
<path id="path8" d="M 623.8033149389681 909.8806846805629 c 0 36.70759906526202 -8.981646579798154 10.543672071936964 -19.525318651735116 10.543672071936964 S 584.7526776354979 946.5882837458249 584.7526776354979 909.8806846805629 s 8.981646579798154 -10.543672071936964 19.525318651735116 -10.543672071936964 S 623.8033149389681 873.1730856153009 623.8033149389681 909.8806846805629 z" fill="none" stroke="none" style="animation-play-state:paused"/>


<circle cx="0" cy="0" r="2.2551477964765785" fill="#51cacc" opacity="0.9" transform="translate(598.5902099609375 897.1843872070312)" style="opacity:0.9;animation-play-state:paused"/>
<path id="path9" d="M 712.56332016573 789.9879143285574 c 0 31.62877079367541 -7.738954555899301 9.084859696055704 -16.823814251955007 9.084859696055704 S 678.91569166182 821.6166851222328 678.91569166182 789.9879143285574 s 7.738954555899301 -9.084859696055704 16.823814251955007 -9.084859696055704 S 712.56332016573 758.359143534882 712.56332016573 789.9879143285574 z" fill="none" stroke="none" style="animation-play-state:paused"/>


<circle cx="0" cy="0" r="1.256127781248796" fill="#e0ff77" opacity="0.9" transform="translate(680.664794921875 774.350341796875)" style="opacity:0.9;animation-play-state:paused"/>
<path id="path10" d="M 608.5653679029266 748.2822038061012 c 0 19.104077316929647 -4.674401896695551 5.487341356990431 -10.161743253685982 5.487341356990431 S 588.2418813955547 767.3862811230308 588.2418813955547 748.2822038061012 s 4.674401896695551 -5.487341356990431 10.161743253685982 -5.487341356990431 S 608.5653679029266 729.1781264891715 608.5653679029266 748.2822038061012 z" fill="none" stroke="none" style="animation-play-state:paused"/>


<circle cx="0" cy="0" r="1.8587967247523927" fill="#e0ff77" opacity="0.9" transform="translate(588.244140625 747.708740234375)" style="opacity:0.9;animation-play-state:paused"/>
<path id="path11" d="M 736.7638048083134 792.4298849630183 c 0 19.62522239811342 -4.801916118687325 5.637031965415557 -10.438948084102881 5.637031965415557 S 715.8859086401076 812.0551073611317 715.8859086401076 792.4298849630183 s 4.801916118687325 -5.637031965415557 10.438948084102881 -5.637031965415557 S 736.7638048083134 772.8046625649048 736.7638048083134 792.4298849630183 z" fill="none" stroke="none" style="animation-play-state:paused"/>


<circle cx="0" cy="0" r="1.5491719076494415" fill="#51cacc" opacity="0.9" transform="translate(725.036376953125 798.2951049804688)" style="opacity:0.9;animation-play-state:paused"/>
<path id="path12" d="M 1169.928356480659 744.1445459908053 c 0 32.24162288052804 -7.888907726086648 9.260891678449545 -17.149799404536193 9.260891678449545 S 1135.6287576715865 776.3861688713334 1135.6287576715865 744.1445459908053 s 7.888907726086648 -9.260891678449545 17.149799404536193 -9.260891678449545 S 1169.928356480659 711.9029231102772 1169.928356480659 744.1445459908053 z" fill="none" stroke="none" style="animation-play-state:paused"/>


<circle cx="0" cy="0" r="2.4413341101690005" fill="#e0ff77" opacity="0.9" transform="translate(1149.4410400390625 754.30029296875)" style="opacity:0.9;animation-play-state:paused"/>
<path id="path13" d="M 579.6580872050768 660.9476934314944 c 0 22.34804286638107 -5.4681381481570694 6.4191186956626485 -11.887256843819717 6.4191186956626485 S 555.8835735174373 683.2957362978755 555.8835735174373 660.9476934314944 s 5.4681381481570694 -6.4191186956626485 11.887256843819717 -6.4191186956626485 S 579.6580872050768 638.5996505651133 579.6580872050768 660.9476934314944 z" fill="none" stroke="none" style="animation-play-state:paused"/>


<circle cx="0" cy="0" r="1.3305251514262015" fill="#9df871" opacity="0.9" transform="translate(563.2122802734375 652.3944091796875)" style="opacity:0.9;animation-play-state:paused"/>
<path id="path14" d="M 168.65957966442411 342.89157935346105 c 0 21.48319953846358 -5.256527546645344 6.1707062504097525 -11.427233797055097 6.1707062504097525 S 145.80511207031392 364.3747788919246 145.80511207031392 342.89157935346105 s 5.256527546645344 -6.1707062504097525 11.427233797055097 -6.1707062504097525 S 168.65957966442411 321.4083798149975 168.65957966442411 342.89157935346105 z" fill="none" stroke="none" style="animation-play-state:paused"/>


<circle cx="0" cy="0" r="1.8894451819406428" fill="#de9dd6" opacity="0.9" transform="translate(147.26724243164062 331.8757019042969)" style="opacity:0.9;animation-play-state:paused"/>
<path id="path15" d="M 52.713952457878214 6.161709563867306 c 0 19.27684575733801 -4.716675025731639 5.536966334554535 -10.253641360286174 5.536966334554535 S 32.206669737305866 25.438555321205314 32.206669737305866 6.161709563867306 s 4.716675025731639 -5.536966334554535 10.253641360286174 -5.536966334554535 S 52.713952457878214 -13.115136193470704 52.713952457878214 6.161709563867306 z" fill="none" stroke="none" style="animation-play-state:paused"/>


<circle cx="0" cy="0" r="1.4969594507526283" fill="#ff708e" opacity="0.9" transform="translate(52.442440032958984 12.48723316192627)" style="opacity:0.9;animation-play-state:paused"/>
<path id="path16" d="M 37.39403514110889 37.79023536242046 c 0 28.253541131090074 -6.913100489522039 8.115378835525872 -15.028479325047911 8.115378835525872 S 7.337076491013065 66.04377649351053 7.337076491013065 37.79023536242046 s 6.913100489522039 -8.115378835525872 15.028479325047911 -8.115378835525872 S 37.39403514110889 9.536694231330387 37.39403514110889 37.79023536242046 z" fill="none" stroke="none" style="animation-play-state:paused"/>


<circle cx="0" cy="0" r="1.7409109676297965" fill="#ff708e" opacity="0.9" transform="translate(19.61967658996582 46.60154724121094)" style="opacity:0.9;animation-play-state:paused"/>
<path id="path17" d="M 698.2326519902452 91.94287709929753 c 0 20.552687013786507 -5.028848950181804 5.90343137630038 -10.932280326482184 5.90343137630038 S 676.3680913372808 112.49556411308404 676.3680913372808 91.94287709929753 s 5.028848950181804 -5.90343137630038 10.932280326482184 -5.90343137630038 S 698.2326519902452 71.39019008551102 698.2326519902452 91.94287709929753 z" fill="none" stroke="none" style="animation-play-state:paused"/>


<circle cx="0" cy="0" r="2.4005731368830503" fill="#e0ff77" opacity="0.9" transform="translate(698.0504150390625 97.57622528076172)" style="opacity:0.9;animation-play-state:paused"/>
<path id="path18" d="M 554.270540634446 720.6016272328429 c 0 25.21073655915714 -6.168584477240577 7.241381777630243 -13.40996625487082 7.241381777630243 S 527.4506081247043 745.812363792 527.4506081247043 720.6016272328429 s 6.168584477240577 -7.241381777630243 13.40996625487082 -7.241381777630243 S 554.270540634446 695.3908906736858 554.270540634446 720.6016272328429 z" fill="none" stroke="none" style="animation-play-state:paused"/>


<circle cx="0" cy="0" r="1.6761018595054697" fill="#ff708e" opacity="0.9" transform="translate(540.41845703125 713.338134765625)" style="opacity:0.9;animation-play-state:paused"/>
<path id="path19" d="M 649.6604297531072 652.2474927847551 c 0 28.41425382614616 -6.952423808525124 8.161540992616452 -15.113964801141575 8.161540992616452 S 619.432500150824 680.6617466109012 619.432500150824 652.2474927847551 s 6.952423808525124 -8.161540992616452 15.113964801141575 -8.161540992616452 S 649.6604297531072 623.833238958609 649.6604297531072 652.2474927847551 z" fill="none" stroke="none" style="animation-play-state:paused"/>


<circle cx="0" cy="0" r="1.9437437071772163" fill="#51cacc" opacity="0.9" transform="translate(649.6591796875 652.8762817382812)" style="opacity:0.9;animation-play-state:paused"/>
<path id="path20" d="M 1294.0294737354818 922.5762819401244 c 0 30.63563676981582 -7.495953677720891 8.799597795585395 -16.295551473306286 8.799597795585395 S 1261.4383707888694 953.2119187099403 1261.4383707888694 922.5762819401244 s 7.495953677720891 -8.799597795585395 16.295551473306286 -8.799597795585395 S 1294.0294737354818 891.9406451703086 1294.0294737354818 922.5762819401244 z" fill="none" stroke="none" style="animation-play-state:paused"/>


<circle cx="0" cy="0" r="1.6493534728480528" fill="#de9dd6" opacity="0.9" transform="translate(1265.3607177734375 906.3055419921875)" style="opacity:0.9;animation-play-state:paused"/>
<path id="path21" d="M 844.4559677179395 43.53777992777712 c 0 20.87956029441434 -5.108828582675849 5.997320510097737 -11.106149092773585 5.997320510097737 S 822.2436695323925 64.41734022219146 822.2436695323925 43.53777992777712 s 5.108828582675849 -5.997320510097737 11.106149092773585 -5.997320510097737 S 844.4559677179395 22.658219633362783 844.4559677179395 43.53777992777712 z" fill="none" stroke="none" style="animation-play-state:paused"/>


<circle cx="0" cy="0" r="2.3715965347046315" fill="#9df871" opacity="0.9" transform="translate(830.91455078125 50.2602653503418)" style="opacity:0.9;animation-play-state:paused"/>
<path id="path22" d="M 1514.583011808771 859.3518735582892 c 0 34.636179386883356 -8.474809849982098 9.948689823892028 -18.423499673874126 9.948689823892028 S 1477.7360124610227 893.9880529451725 1477.7360124610227 859.3518735582892 s 8.474809849982098 -9.948689823892028 18.423499673874126 -9.948689823892028 S 1514.583011808771 824.7156941714059 1514.583011808771 859.3518735582892 z" fill="none" stroke="none" style="animation-play-state:paused"/>


<circle cx="0" cy="0" r="1.7770217640440182" fill="#ff708e" opacity="0.9" transform="translate(1478.357666015625 846.9461669921875)" style="opacity:0.9;animation-play-state:paused"/>
<path id="path23" d="M 1141.8469819131915 707.6952561001135 c 0 31.491330575475583 -7.705325566339769 9.045382186572775 -16.750707752912543 9.045382186572775 S 1108.3455664073663 739.1865866755891 1108.3455664073663 707.6952561001135 s 7.705325566339769 -9.045382186572775 16.750707752912543 -9.045382186572775 S 1141.8469819131915 676.203925524638 1141.8469819131915 707.6952561001135 z" fill="none" stroke="none" style="animation-play-state:paused"/>


<circle cx="0" cy="0" r="2.1710925578376066" fill="#ff708e" opacity="0.9" transform="translate(1109.592041015625 722.1126708984375)" style="opacity:0.9;animation-play-state:paused"/>
<path id="path24" d="M 193.13961692104894 218.41944320964714 c 0 26.000543090525568 -6.361835011511574 7.4682411004701095 -13.830076111981684 7.4682411004701095 S 165.47946469708555 244.4199863001727 165.47946469708555 218.41944320964714 s 6.361835011511574 -7.4682411004701095 13.830076111981684 -7.4682411004701095 S 193.13961692104894 192.4189001191216 193.13961692104894 218.41944320964714 z" fill="none" stroke="none" style="animation-play-state:paused"/>


<circle cx="0" cy="0" r="2.422618651406327" fill="#de9dd6" opacity="0.9" transform="translate(165.61968994140625 224.221435546875)" style="opacity:0.9;animation-play-state:paused"/>
<path id="path25" d="M 1311.8487090184985 911.7011074475951 c 0 22.183747222997855 -5.427938150307985 6.371927393839809 -11.799865544147794 6.371927393839809 S 1288.2489779302027 933.884854670593 1288.2489779302027 911.7011074475951 s 5.427938150307985 -6.371927393839809 11.799865544147794 -6.371927393839809 S 1311.8487090184985 889.5173602245972 1311.8487090184985 911.7011074475951 z" fill="none" stroke="none" style="animation-play-state:paused"/>


<circle cx="0" cy="0" r="1.897086389497837" fill="#de9dd6" opacity="0.9" transform="translate(1307.6136474609375 922.7353515625)" style="opacity:0.9;animation-play-state:paused"/>
<path id="path26" d="M 656.7671439158871 180.18480028855618 c 0 24.672412378434718 -6.036866858553175 7.086756746997206 -13.123623605550382 7.086756746997206 S 630.5198967047863 204.8572126669909 630.5198967047863 180.18480028855618 s 6.036866858553175 -7.086756746997206 13.123623605550382 -7.086756746997206 S 656.7671439158871 155.51238791012145 656.7671439158871 180.18480028855618 z" fill="none" stroke="none" style="animation-play-state:paused"/>


<circle cx="0" cy="0" r="2.411459151320617" fill="#51cacc" opacity="0.9" transform="translate(656.7297973632812 183.30052185058594)" style="opacity:0.9;animation-play-state:paused"/>
<path id="path27" d="M 678.8039483781278 858.752135911139 c 0 31.25488428471727 -7.647471686686139 8.977466762631558 -16.624938449317696 8.977466762631558 S 645.5540714794923 890.0070201958563 645.5540714794923 858.752135911139 s 7.647471686686139 -8.977466762631558 16.624938449317696 -8.977466762631558 S 678.8039483781278 827.4972516264218 678.8039483781278 858.752135911139 z" fill="none" stroke="none" style="animation-play-state:paused"/>


<circle cx="0" cy="0" r="1.701458132851187" fill="#51cacc" opacity="0.9" transform="translate(653.0582275390625 844.44677734375)" style="opacity:0.9;animation-play-state:paused"/>
<path id="path28" d="M 1541.4104481645643 84.9591889978968 c 0 31.36104208109594 -7.673446466651133 9.00795889563394 -16.681405362285073 9.00795889563394 S 1508.0476374399943 116.32023107899275 1508.0476374399943 84.9591889978968 s 7.673446466651133 -9.00795889563394 16.681405362285073 -9.00795889563394 S 1541.4104481645643 53.598146916800864 1541.4104481645643 84.9591889978968 z" fill="none" stroke="none" style="animation-play-state:paused"/>


<circle cx="0" cy="0" r="2.04414161103209" fill="#51cacc" opacity="0.9" transform="translate(1508.064453125 82.54879760742188)" style="opacity:0.9;animation-play-state:paused"/>
<path id="path29" d="M 286.176900769754 384.74531926321794 c 0 23.071340653672408 -5.645115266324099 6.626874443076118 -12.271989709400216 6.626874443076118 S 261.6329213509536 407.81665991689033 261.6329213509536 384.74531926321794 s 5.645115266324099 -6.626874443076118 12.271989709400216 -6.626874443076118 S 286.176900769754 361.67397860954554 286.176900769754 384.74531926321794 z" fill="none" stroke="none" style="animation-play-state:paused"/>


<circle cx="0" cy="0" r="1.5645441092414325" fill="#ff708e" opacity="0.9" transform="translate(279.39727783203125 375.2586669921875)" style="opacity:0.9;animation-play-state:paused"/>
<path id="path30" d="M 1277.5046802101895 497.8546462688779 c 0 19.183067160690616 -4.693729198892385 5.510029929134539 -10.203759128026924 5.510029929134539 S 1257.0971619541358 517.0377134295685 1257.0971619541358 497.8546462688779 s 4.693729198892385 -5.510029929134539 10.203759128026924 -5.510029929134539 S 1277.5046802101895 478.6715791081873 1277.5046802101895 497.8546462688779 z" fill="none" stroke="none" style="animation-play-state:paused"/>


<circle cx="0" cy="0" r="2.42734480391547" fill="#ff708e" opacity="0.9" transform="translate(1257.5396728515625 505.33929443359375)" style="opacity:0.9;animation-play-state:paused"/>
<path id="path31" d="M 450.94000606013424 678.6109435630879 c 0 34.431360210631446 -8.424694519622587 9.889858783904776 -18.31455330352736 9.889858783904776 S 414.3108994530795 713.0423037737193 414.3108994530795 678.6109435630879 s 8.424694519622587 -9.889858783904776 18.31455330352736 -9.889858783904776 S 450.94000606013424 644.1795833524565 450.94000606013424 678.6109435630879 z" fill="none" stroke="none" style="animation-play-state:paused"/>


<circle cx="0" cy="0" r="1.688031364857778" fill="#ff708e" opacity="0.9" transform="translate(450.8895568847656 674.330078125)" style="opacity:0.9;animation-play-state:paused"/>
<path id="path32" d="M 775.4339591221254 86.14176467746577 c 0 30.21199711831084 -7.3922971672462685 8.677914065897795 -16.070211233144065 8.677914065897795 S 743.2935366558373 116.35376179577662 743.2935366558373 86.14176467746577 s 7.3922971672462685 -8.677914065897795 16.070211233144065 -8.677914065897795 S 775.4339591221254 55.92976755915493 775.4339591221254 86.14176467746577 z" fill="none" stroke="none" style="animation-play-state:paused"/>


<circle cx="0" cy="0" r="1.7120224912138704" fill="#9df871" opacity="0.9" transform="translate(743.7772827148438 75.7534408569336)" style="opacity:0.9;animation-play-state:paused"/>
<path id="path33" d="M 891.7594467828994 60.719150256703365 c 0 22.10168630427947 -5.40785941487689 6.3483567044206985 -11.756216119297589 6.3483567044206985 S 868.2470145443042 82.82083656098283 868.2470145443042 60.719150256703365 s 5.40785941487689 -6.3483567044206985 11.756216119297589 -6.3483567044206985 S 891.7594467828994 38.6174639524239 891.7594467828994 60.719150256703365 z" fill="none" stroke="none" style="animation-play-state:paused"/>


<circle cx="0" cy="0" r="1.8296175650191775" fill="#de9dd6" opacity="0.9" transform="translate(874.691162109375 69.8504867553711)" style="opacity:0.9;animation-play-state:paused"/>
<path id="path34" d="M 883.3931150500473 144.05471823623495 c 0 36.982629571255664 -9.048941278073192 10.622670195998968 -19.671611474072158 10.622670195998968 S 844.049892101903 181.03734780749062 844.049892101903 144.05471823623495 s 9.048941278073192 -10.622670195998968 19.671611474072158 -10.622670195998968 S 883.3931150500473 107.07208866497928 883.3931150500473 144.05471823623495 z" fill="none" stroke="none" style="animation-play-state:paused"/>


<circle cx="0" cy="0" r="2.256191115216696" fill="#ff708e" opacity="0.9" transform="translate(845.281494140625 127.89895629882812)" style="opacity:0.9;animation-play-state:paused"/>
<path id="path35" d="M 499.4970257921899 953.7584172885239 c 0 21.422906976005578 -5.2417751111503 6.153388173959049 -11.395163285109348 6.153388173959049 S 476.70669922197123 975.1813242645295 476.70669922197123 953.7584172885239 s 5.2417751111503 -6.153388173959049 11.395163285109348 -6.153388173959049 S 499.4970257921899 932.3355103125183 499.4970257921899 953.7584172885239 z" fill="none" stroke="none" style="animation-play-state:paused"/>


<circle cx="0" cy="0" r="2.0430057525786367" fill="#51cacc" opacity="0.9" transform="translate(499.39361572265625 949.2039794921875)" style="opacity:0.9;animation-play-state:paused"/>
<path id="path36" d="M 580.1773235595616 754.825561131426 c 0 37.221147411451874 -9.107302026206309 10.691180639459581 -19.79848266566589 10.691180639459581 S 540.5803582282298 792.0467085428778 540.5803582282298 754.825561131426 s 9.107302026206309 -10.691180639459581 19.79848266566589 -10.691180639459581 S 580.1773235595616 717.6044137199741 580.1773235595616 754.825561131426 z" fill="none" stroke="none" style="animation-play-state:paused"/>


<circle cx="0" cy="0" r="1.8963217345308825" fill="#9df871" opacity="0.9" transform="translate(551.829345703125 739.7858276367188)" style="opacity:0.9;animation-play-state:paused"/>
<path id="path37" d="M 643.0595713685154 760.8405554550374 c 0 32.403598736998774 -7.9285401164997 9.30741665849965 -17.235956774999348 9.30741665849965 S 608.5876578185168 793.2441541920361 608.5876578185168 760.8405554550374 s 7.9285401164997 -9.30741665849965 17.235956774999348 -9.30741665849965 S 643.0595713685154 728.4369567180386 643.0595713685154 760.8405554550374 z" fill="none" stroke="none" style="animation-play-state:paused"/>


<circle cx="0" cy="0" r="2.4990997174915117" fill="#e0ff77" opacity="0.9" transform="translate(618.6130981445312 747.9429931640625)" style="opacity:0.9;animation-play-state:paused"/>
<path id="path38" d="M 579.9543241541029 722.9421173436208 c 0 27.220907133483664 -6.6604347241502575 7.818771197915521 -14.479205922065779 7.818771197915521 S 550.9959123099712 750.1630244771045 550.9959123099712 722.9421173436208 s 6.6604347241502575 -7.818771197915521 14.479205922065779 -7.818771197915521 S 579.9543241541029 695.7212102101371 579.9543241541029 722.9421173436208 z" fill="none" stroke="none" style="animation-play-state:paused"/>


<circle cx="0" cy="0" r="1.288072733536684" fill="#51cacc" opacity="0.9" transform="translate(576.3821411132812 737.3754272460938)" style="opacity:0.9;animation-play-state:paused"/>
<path id="path39" d="M 1149.3171217606823 397.77537773958267 c 0 20.75875220845776 -5.0792691573886 5.9626203151953145 -11.041889472583915 5.9626203151953145 S 1127.2333428155143 418.5341299480404 1127.2333428155143 397.77537773958267 s 5.0792691573886 -5.9626203151953145 11.041889472583915 -5.9626203151953145 S 1149.3171217606823 377.01662553112493 1149.3171217606823 397.77537773958267 z" fill="none" stroke="none" style="animation-play-state:paused"/>


<circle cx="0" cy="0" r="1.5040433896537773" fill="#ff708e" opacity="0.9" transform="translate(1144.8385009765625 387.85064697265625)" style="opacity:0.9;animation-play-state:paused"/></g></svg>