<?xml version="1.0" encoding="utf-8"?><svg xmlns="http://www.w3.org/2000/svg" xmlns:xlink="http://www.w3.org/1999/xlink" preserveAspectRatio="xMidYMid" viewBox="0 0 1426 956" style="z-index:1;margin-right:-2px;display:block;background-repeat-y:initial;background-repeat-x:initial;background-color:rgb(255, 255, 255);animation-play-state:paused"><g transform="translate(713,478) scale(1,1) translate(-713,-478)" style="transform:matrix(1, 0, 0, 1, 0, 0);animation-play-state:paused"><path id="path0" d="M 862.1322696707886 640.1949711644563 c 0 21.243244974869313 -5.197815259808449 6.101783131079484 -11.299598390887933 6.101783131079484 S 839.5330728890127 661.4382161393256 839.5330728890127 640.1949711644563 s 5.197815259808449 -6.101783131079484 11.299598390887933 -6.101783131079484 S 862.1322696707886 618.951726189587 862.1322696707886 640.1949711644563 z" fill="none" stroke="none" style="animation-play-state:paused"/>


<circle cx="0" cy="0" r="2.956300371176393" fill="#51cacc" opacity="0.9" transform="translate(861.8762817382812 646.7634887695312)" style="opacity:0.9;animation-play-state:paused"/>
<path id="path1" d="M 1002.3766620737814 8.0279877574593 c 0 25.40965898441286 -6.217256985547827 7.298519069990928 -13.515776055538755 7.298519069990928 S 975.345109962704 33.43764674187216 975.345109962704 8.0279877574593 s 6.217256985547827 -7.298519069990928 13.515776055538755 -7.298519069990928 S 1002.3766620737814 -17.38167122695356 1002.3766620737814 8.0279877574593 z" fill="none" stroke="none" style="animation-play-state:paused"/>


<circle cx="0" cy="0" r="2.2964148690335664" fill="#e0ff77" opacity="0.9" transform="translate(975.4166259765625 3.7595887184143066)" style="opacity:0.9;animation-play-state:paused"/>
<path id="path2" d="M 366.01662288697173 890.727166015056 c 0 27.84583471053134 -6.81334253555554 7.998271672173896 -14.811614207729436 7.998271672173896 S 336.3933944715128 918.5730007255873 336.3933944715128 890.727166015056 s 6.81334253555554 -7.998271672173896 14.811614207729436 -7.998271672173896 S 366.01662288697173 862.8813313045247 366.01662288697173 890.727166015056 z" fill="none" stroke="none" style="animation-play-state:paused"/>


<circle cx="0" cy="0" r="2.762656060505526" fill="#51cacc" opacity="0.9" transform="translate(363.83197021484375 876.1762084960938)" style="opacity:0.9;animation-play-state:paused"/>
<path id="path3" d="M 1341.8942577515018 830.9816133144815 c 0 24.868109065308307 -6.084750090447777 7.142967497482173 -13.22771758792995 7.142967497482173 S 1315.438822575642 855.8497223797898 1315.438822575642 830.9816133144815 s 6.084750090447777 -7.142967497482173 13.22771758792995 -7.142967497482173 S 1341.8942577515018 806.1135042491732 1341.8942577515018 830.9816133144815 z" fill="none" stroke="none" style="animation-play-state:paused"/>


<circle cx="0" cy="0" r="3.246893118506319" fill="#ff708e" opacity="0.9" transform="translate(1315.477294921875 834.1542358398438)" style="opacity:0.9;animation-play-state:paused"/>
<path id="path4" d="M 103.6956750319149 713.928837251709 c 0 35.3837845039896 -8.657734506295327 10.163427463911907 -18.821161970207235 10.163427463911907 S 66.05335109150042 749.3126217556985 66.05335109150042 713.928837251709 s 8.657734506295327 -10.163427463911907 18.821161970207235 -10.163427463911907 S 103.6956750319149 678.5450527477194 103.6956750319149 713.928837251709 z" fill="none" stroke="none" style="animation-play-state:paused"/>


<circle cx="0" cy="0" r="2.0425583712210105" fill="#de9dd6" opacity="0.9" transform="translate(66.06037902832031 712.244140625)" style="opacity:0.9;animation-play-state:paused"/>
<path id="path5" d="M 1036.5274561064566 576.4472609419004 c 0 27.03368614008754 -6.614625332149078 7.764994955131527 -14.379620287280606 7.764994955131527 S 1007.7682155318954 603.4809470819879 1007.7682155318954 576.4472609419004 s 6.614625332149078 -7.764994955131527 14.379620287280606 -7.764994955131527 S 1036.5274561064566 549.4135748018128 1036.5274561064566 576.4472609419004 z" fill="none" stroke="none" style="animation-play-state:paused"/>


<circle cx="0" cy="0" r="3.9430579010657527" fill="#51cacc" opacity="0.9" transform="translate(1013.408447265625 563.3680419921875)" style="opacity:0.9;animation-play-state:paused"/>
<path id="path6" d="M 930.4709442088774 642.1387368304123 c 0 35.08160265987949 -8.583796395502429 10.076630551241982 -18.660426946744412 10.076630551241982 S 893.1500903153885 677.2203394902918 893.1500903153885 642.1387368304123 s 8.583796395502429 -10.076630551241982 18.660426946744412 -10.076630551241982 S 930.4709442088774 607.0571341705328 930.4709442088774 642.1387368304123 z" fill="none" stroke="none" style="animation-play-state:paused"/>


<circle cx="0" cy="0" r="3.6382676944801533" fill="#de9dd6" opacity="0.9" transform="translate(921.0195922851562 626.9716186523438)" style="opacity:0.9;animation-play-state:paused"/>
<path id="path7" d="M 208.93881179622304 534.4884511845429 c 0 21.143148063495723 -5.1733234623446975 6.073031890578559 -11.246355352923256 6.073031890578559 S 186.44610109037654 555.6315992480386 186.44610109037654 534.4884511845429 s 5.1733234623446975 -6.073031890578559 11.246355352923256 -6.073031890578559 S 208.93881179622304 513.3453031210472 208.93881179622304 534.4884511845429 z" fill="none" stroke="none" style="animation-play-state:paused"/>


<circle cx="0" cy="0" r="3.4059726716253174" fill="#e0ff77" opacity="0.9" transform="translate(208.80763244628906 539.4935302734375)" style="opacity:0.9;animation-play-state:paused"/>
<path id="path8" d="M 102.05457859039004 530.3299169063392 c 0 32.69643539465763 -8.000191639118354 9.391529315486764 -17.39172095460512 9.391529315486764 S 67.2711366811798 563.0263523009969 67.2711366811798 530.3299169063392 s 8.000191639118354 -9.391529315486764 17.39172095460512 -9.391529315486764 S 102.05457859039004 497.6334815116816 102.05457859039004 530.3299169063392 z" fill="none" stroke="none" style="animation-play-state:paused"/>


<circle cx="0" cy="0" r="2.1663716841108887" fill="#51cacc" opacity="0.9" transform="translate(69.17085266113281 546.65087890625)" style="opacity:0.9;animation-play-state:paused"/>
<path id="path9" d="M 1224.970280875511 877.3960060131492 c 0 31.657927016152097 -7.7460885252287035 9.093234355703263 -16.839322880931967 9.093234355703263 S 1191.2916351136469 909.0539330293013 1191.2916351136469 877.3960060131492 s 7.7460885252287035 -9.093234355703263 16.839322880931967 -9.093234355703263 S 1224.970280875511 845.738078996997 1224.970280875511 877.3960060131492 z" fill="none" stroke="none" style="animation-play-state:paused"/>


<circle cx="0" cy="0" r="3.1442711425941154" fill="#51cacc" opacity="0.9" transform="translate(1191.2921142578125 877.6837158203125)" style="opacity:0.9;animation-play-state:paused"/>
<path id="path10" d="M 422.629086806255 35.18586835972245 c 0 21.410383308846843 -5.238710809611461 6.149790950413455 -11.388501760024916 6.149790950413455 S 399.8520832862052 56.596251668569295 399.8520832862052 35.18586835972245 s 5.238710809611461 -6.149790950413455 11.388501760024916 -6.149790950413455 S 422.629086806255 13.775485050875606 422.629086806255 35.18586835972245 z" fill="none" stroke="none" style="animation-play-state:paused"/>


<circle cx="0" cy="0" r="2.0561215033474243" fill="#e0ff77" opacity="0.9" transform="translate(422.3141174316406 28.046178817749023)" style="opacity:0.9;animation-play-state:paused"/>
<path id="path11" d="M 1137.3341688625826 815.5753903637171 c 0 34.846529696861815 -8.526278542849168 10.009109593779458 -18.535388136628626 10.009109593779458 S 1100.2633925893253 850.4219200605789 1100.2633925893253 815.5753903637171 s 8.526278542849168 -10.009109593779458 18.535388136628626 -10.009109593779458 S 1137.3341688625826 780.7288606668553 1137.3341688625826 815.5753903637171 z" fill="none" stroke="none" style="animation-play-state:paused"/>


<circle cx="0" cy="0" r="3.7747556542265968" fill="#e0ff77" opacity="0.9" transform="translate(1133.0318603515625 834.1182861328125)" style="opacity:0.9;animation-play-state:paused"/>
<path id="path12" d="M 1141.2172344179248 740.3875134001354 c 0 30.717576731615527 -7.516002817310181 8.82313374205978 -16.339136559369962 8.82313374205978 S 1108.5389612991848 771.1050901317509 1108.5389612991848 740.3875134001354 s 7.516002817310181 -8.82313374205978 16.339136559369962 -8.82313374205978 S 1141.2172344179248 709.6699366685199 1141.2172344179248 740.3875134001354 z" fill="none" stroke="none" style="animation-play-state:paused"/>


<circle cx="0" cy="0" r="2.319315327890394" fill="#ff708e" opacity="0.9" transform="translate(1121.0916748046875 750.3935546875)" style="opacity:0.9;animation-play-state:paused"/>
<path id="path13" d="M 679.9773990209001 370.591591175281 c 0 27.962519677526302 -6.841893112586222 8.031787566949044 -14.873680679535266 8.031787566949044 S 650.2300376618296 398.5541108528073 650.2300376618296 370.591591175281 s 6.841893112586222 -8.031787566949044 14.873680679535266 -8.031787566949044 S 679.9773990209001 342.6290714977547 679.9773990209001 370.591591175281 z" fill="none" stroke="none" style="animation-play-state:paused"/>


<circle cx="0" cy="0" r="2.5519450112809983" fill="#ff708e" opacity="0.9" transform="translate(672.4744873046875 382.7073059082031)" style="opacity:0.9;animation-play-state:paused"/>
<path id="path14" d="M 1367.613112135577 203.77675326528453 c 0 23.251166799421842 -5.689115280709599 6.678526633876486 -12.367641914586084 6.678526633876486 S 1342.8778283064048 227.02792006470636 1342.8778283064048 203.77675326528453 s 5.689115280709599 -6.678526633876486 12.367641914586084 -6.678526633876486 S 1367.613112135577 180.5255864658627 1367.613112135577 203.77675326528453 z" fill="none" stroke="none" style="animation-play-state:paused"/>


<circle cx="0" cy="0" r="2.7155737527509043" fill="#51cacc" opacity="0.9" transform="translate(1356.9876708984375 196.7494659423828)" style="opacity:0.9;animation-play-state:paused"/>
<path id="path15" d="M 522.2683147817071 362.76048570278647 c 0 26.100449804963425 -6.3862802714272195 7.496937709936303 -13.883217981363522 7.496937709936303 S 494.50187881898006 388.8609355077499 494.50187881898006 362.76048570278647 s 6.3862802714272195 -7.496937709936303 13.883217981363522 -7.496937709936303 S 522.2683147817071 336.66003589782304 522.2683147817071 362.76048570278647 z" fill="none" stroke="none" style="animation-play-state:paused"/>


<circle cx="0" cy="0" r="2.8868673523340083" fill="#9df871" opacity="0.9" transform="translate(494.56658935546875 366.89056396484375)" style="opacity:0.9;animation-play-state:paused"/>
<path id="path16" d="M 1070.14677409824 158.6811658063906 c 0 24.67299190719105 -6.037008658142491 7.086923207384664 -13.123931865527155 7.086923207384664 S 1043.8989103671859 183.35415771358166 1043.8989103671859 158.6811658063906 s 6.037008658142491 -7.086923207384664 13.123931865527155 -7.086923207384664 S 1070.14677409824 134.00817389919953 1070.14677409824 158.6811658063906 z" fill="none" stroke="none" style="animation-play-state:paused"/>


<circle cx="0" cy="0" r="3.5771279120801487" fill="#51cacc" opacity="0.9" transform="translate(1052.847900390625 149.8984832763672)" style="opacity:0.9;animation-play-state:paused"/>
<path id="path17" d="M 445.8950621784772 26.931007402497773 c 0 22.55763607424314 -5.519421592633959 6.479321000048562 -11.998742592682522 6.479321000048562 S 421.8975769931122 49.48864347674091 421.8975769931122 26.931007402497773 s 5.519421592633959 -6.479321000048562 11.998742592682522 -6.479321000048562 S 445.8950621784772 4.373371328254635 445.8950621784772 26.931007402497773 z" fill="none" stroke="none" style="animation-play-state:paused"/>


<circle cx="0" cy="0" r="3.431024544004866" fill="#51cacc" opacity="0.9" transform="translate(440.1357727050781 16.902442932128906)" style="opacity:0.9;animation-play-state:paused"/>
<path id="path18" d="M 1047.3816941753241 209.73465508183205 c 0 35.196023608659516 -8.611793010629453 10.109496142912839 -18.721289153542294 10.109496142912839 S 1009.9391158682395 244.93067869049156 1009.9391158682395 209.73465508183205 s 8.611793010629453 -10.109496142912839 18.721289153542294 -10.109496142912839 S 1047.3816941753241 174.53863147317253 1047.3816941753241 209.73465508183205 z" fill="none" stroke="none" style="animation-play-state:paused"/>


<circle cx="0" cy="0" r="2.460141695084447" fill="#e0ff77" opacity="0.9" transform="translate(1037.64208984375 224.7274627685547)" style="opacity:0.9;animation-play-state:paused"/>
<path id="path19" d="M 790.1543975122867 535.1134114098005 c 0 23.241225906376066 -5.686682934538824 6.675671270980359 -12.362354205519184 6.675671270980359 S 765.4296891012483 558.3546373161765 765.4296891012483 535.1134114098005 s 5.686682934538824 -6.675671270980359 12.362354205519184 -6.675671270980359 S 790.1543975122867 511.8721855034244 790.1543975122867 535.1134114098005 z" fill="none" stroke="none" style="animation-play-state:paused"/>


<circle cx="0" cy="0" r="3.6883967956215" fill="#de9dd6" opacity="0.9" transform="translate(779.2678833007812 528.1844482421875)" style="opacity:0.9;animation-play-state:paused"/>
<path id="path20" d="M 1030.0465520587798 261.86732214421113 c 0 36.807195954152405 -9.006016031335161 10.57227968895867 -19.57829572029383 10.57227968895867 S 990.889960618192 298.67451809836354 990.889960618192 261.86732214421113 s 9.006016031335161 -10.57227968895867 19.57829572029383 -10.57227968895867 S 1030.0465520587798 225.06012619005872 1030.0465520587798 261.86732214421113 z" fill="none" stroke="none" style="animation-play-state:paused"/>


<circle cx="0" cy="0" r="2.148766881215221" fill="#de9dd6" opacity="0.9" transform="translate(1030.0303955078125 259.2878112792969)" style="opacity:0.9;animation-play-state:paused"/>
<path id="path21" d="M 776.9477306832105 190.68208400539916 c 0 23.47515958848446 -5.743922026969601 6.742864988181707 -12.486787015151307 6.742864988181707 S 751.9741566529078 214.1572435938836 751.9741566529078 190.68208400539916 s 5.743922026969601 -6.742864988181707 12.486787015151307 -6.742864988181707 S 776.9477306832105 167.20692441691472 776.9477306832105 190.68208400539916 z" fill="none" stroke="none" style="animation-play-state:paused"/>


<circle cx="0" cy="0" r="3.964473678950368" fill="#ff708e" opacity="0.9" transform="translate(776.705078125 183.8424072265625)" style="opacity:0.9;animation-play-state:paused"/>
<path id="path22" d="M 558.636557046085 524.7134447704369 c 0 20.488434169596687 -5.0131275095821675 5.884975772118197 -10.898103281700365 5.884975772118197 S 536.8403504826842 545.2018789400336 536.8403504826842 524.7134447704369 s 5.0131275095821675 -5.884975772118197 10.898103281700365 -5.884975772118197 S 558.636557046085 504.2250106008402 558.636557046085 524.7134447704369 z" fill="none" stroke="none" style="animation-play-state:paused"/>


<circle cx="0" cy="0" r="3.5201001251240567" fill="#ff708e" opacity="0.9" transform="translate(545.7800903320312 531.08740234375)" style="opacity:0.9;animation-play-state:paused"/>
<path id="path23" d="M 180.5792694035379 923.1771207676719 c 0 24.794382021509097 -6.066710494624566 7.12179058064623 -13.188501075270796 7.12179058064623 S 154.20226725299628 947.971502789181 154.20226725299628 923.1771207676719 s 6.066710494624566 -7.12179058064623 13.188501075270796 -7.12179058064623 S 180.5792694035379 898.3827387461628 180.5792694035379 923.1771207676719 z" fill="none" stroke="none" style="animation-play-state:paused"/>


<circle cx="0" cy="0" r="2.19451999500526" fill="#9df871" opacity="0.9" transform="translate(154.45474243164062 915.9961547851562)" style="opacity:0.9;animation-play-state:paused"/>
<path id="path24" d="M 81.77221368602872 120.2463019794354 c 0 30.18274152359726 -7.385138883433371 8.669510863160916 -16.054649746594286 8.669510863160916 S 49.66291419284014 150.42904350303266 49.66291419284014 120.2463019794354 s 7.385138883433371 -8.669510863160916 16.054649746594286 -8.669510863160916 S 81.77221368602872 90.06356045583814 81.77221368602872 120.2463019794354 z" fill="none" stroke="none" style="animation-play-state:paused"/>


<circle cx="0" cy="0" r="3.081566701835682" fill="#ff708e" opacity="0.9" transform="translate(68.63816833496094 129.65318298339844)" style="opacity:0.9;animation-play-state:paused"/>
<path id="path25" d="M 1376.4625512459775 203.78573128907342 c 0 30.17740849963314 -7.383833994591087 8.667979037128669 -16.051813031719753 8.667979037128669 S 1344.3589251825379 233.96313978870657 1344.3589251825379 203.78573128907342 s 7.383833994591087 -8.667979037128669 16.051813031719753 -8.667979037128669 S 1376.4625512459775 173.60832278944028 1376.4625512459775 203.78573128907342 z" fill="none" stroke="none" style="animation-play-state:paused"/>


<circle cx="0" cy="0" r="2.149055837108554" fill="#ff708e" opacity="0.9" transform="translate(1376.34130859375 197.86610412597656)" style="opacity:0.9;animation-play-state:paused"/>
<path id="path26" d="M 668.2408239412327 168.55282113992243 c 0 32.34854112662546 -7.915068573536017 9.291602238498804 -17.206670812034822 9.291602238498804 S 633.827482317163 200.9013622665479 633.827482317163 168.55282113992243 s 7.915068573536017 -9.291602238498804 17.206670812034822 -9.291602238498804 S 668.2408239412327 136.20428001329697 668.2408239412327 168.55282113992243 z" fill="none" stroke="none" style="animation-play-state:paused"/>


<circle cx="0" cy="0" r="3.516363038659308" fill="#9df871" opacity="0.9" transform="translate(638.0023803710938 185.7246856689453)" style="opacity:0.9;animation-play-state:paused"/>
<path id="path27" d="M 1373.5638158554843 229.53365660496559 c 0 32.6328382133792 -7.984630626677888 9.373262040013175 -17.357892666691065 9.373262040013175 S 1338.8480305221024 262.1664948183448 1338.8480305221024 229.53365660496559 s 7.984630626677888 -9.373262040013175 17.357892666691065 -9.373262040013175 S 1373.5638158554843 196.90081839158637 1373.5638158554843 229.53365660496559 z" fill="none" stroke="none" style="animation-play-state:paused"/>


<circle cx="0" cy="0" r="2.686157152048001" fill="#de9dd6" opacity="0.9" transform="translate(1351.6790771484375 218.59671020507812)" style="opacity:0.9;animation-play-state:paused"/>
<path id="path28" d="M 45.522025715255964 46.40306451912031 c 0 34.89975674696335 -8.539302182767628 10.024398214553303 -18.56370039732093 10.024398214553303 S 8.394624920614106 81.30282126608367 8.394624920614106 46.40306451912031 s 8.539302182767628 -10.024398214553303 18.56370039732093 -10.024398214553303 S 45.522025715255964 11.503307772156965 45.522025715255964 46.40306451912031 z" fill="none" stroke="none" style="animation-play-state:paused"/>


<circle cx="0" cy="0" r="3.087040311388718" fill="#ff708e" opacity="0.9" transform="translate(17.80516815185547 31.32207679748535)" style="opacity:0.9;animation-play-state:paused"/>
<path id="path29" d="M 1401.2298449513557 68.89393635317217 c 0 22.13871831683031 -5.416920439224437 6.358993559089557 -11.775913998313994 6.358993559089557 S 1377.6780169547276 91.03265467000247 1377.6780169547276 68.89393635317217 s 5.416920439224437 -6.358993559089557 11.775913998313994 -6.358993559089557 S 1401.2298449513557 46.75521803634186 1401.2298449513557 68.89393635317217 z" fill="none" stroke="none" style="animation-play-state:paused"/>


<circle cx="0" cy="0" r="2.7591761019166303" fill="#9df871" opacity="0.9" transform="translate(1387.1622314453125 61.92023849487305)" style="opacity:0.9;animation-play-state:paused"/>
<path id="path30" d="M 905.3996565389082 701.0496232010792 c 0 22.28901782124797 -5.453695849879822 6.402164693337183 -11.855860543217005 6.402164693337183 S 881.6879354524742 723.3386410223271 881.6879354524742 701.0496232010792 s 5.453695849879822 -6.402164693337183 11.855860543217005 -6.402164693337183 S 905.3996565389082 678.7606053798312 905.3996565389082 701.0496232010792 z" fill="none" stroke="none" style="animation-play-state:paused"/>


<circle cx="0" cy="0" r="3.037876515154211" fill="#51cacc" opacity="0.9" transform="translate(882.849365234375 690.1624145507812)" style="opacity:0.9;animation-play-state:paused"/>
<path id="path31" d="M 1239.9124142880491 124.43362273476917 c 0 36.12451652092014 -8.838977446608117 10.376190915583443 -19.215168362191562 10.376190915583443 S 1201.4820775636658 160.5581392556893 1201.4820775636658 124.43362273476917 s 8.838977446608117 -10.376190915583443 19.215168362191562 -10.376190915583443 S 1239.9124142880491 88.30910621384903 1239.9124142880491 124.43362273476917 z" fill="none" stroke="none" style="animation-play-state:paused"/>


<circle cx="0" cy="0" r="2.28183128073547" fill="#ff708e" opacity="0.9" transform="translate(1201.4991455078125 121.82080078125)" style="opacity:0.9;animation-play-state:paused"/>
<path id="path32" d="M 1161.2352339694944 333.21009693203837 c 0 35.73539868373555 -8.743767763041678 10.264423026179362 -19.00819078922104 10.264423026179362 S 1123.2188523910522 368.9454956157739 1123.2188523910522 333.21009693203837 s 8.743767763041678 -10.264423026179362 19.00819078922104 -10.264423026179362 S 1161.2352339694944 297.47469824830284 1161.2352339694944 333.21009693203837 z" fill="none" stroke="none" style="animation-play-state:paused"/>


<circle cx="0" cy="0" r="3.2671543725401526" fill="#9df871" opacity="0.9" transform="translate(1123.2191162109375 333.08294677734375)" style="opacity:0.9;animation-play-state:paused"/>
<path id="path33" d="M 392.0695051334374 830.7485766133602 c 0 34.47600412393376 -8.435618030324218 9.902682035597996 -18.338300065922216 9.902682035597996 S 355.39290500159296 865.224580737294 355.39290500159296 830.7485766133602 s 8.435618030324218 -9.902682035597996 18.338300065922216 -9.902682035597996 S 392.0695051334374 796.2725724894265 392.0695051334374 830.7485766133602 z" fill="none" stroke="none" style="animation-play-state:paused"/>


<circle cx="0" cy="0" r="3.4745691095111724" fill="#ff708e" opacity="0.9" transform="translate(382.9662780761719 845.8145141601562)" style="opacity:0.9;animation-play-state:paused"/>
<path id="path34" d="M 1322.9787184944514 283.97312611376276 c 0 31.7336554406226 -7.764617820577869 9.114986137200109 -16.879603957777977 9.114986137200109 S 1289.2195105788953 315.7067815543854 1289.2195105788953 283.97312611376276 s 7.764617820577869 -9.114986137200109 16.879603957777977 -9.114986137200109 S 1322.9787184944514 252.23947067314015 1322.9787184944514 283.97312611376276 z" fill="none" stroke="none" style="animation-play-state:paused"/>


<circle cx="0" cy="0" r="2.8155208430130756" fill="#de9dd6" opacity="0.9" transform="translate(1322.9302978515625 288.002685546875)" style="opacity:0.9;animation-play-state:paused"/></g></svg>